<mxfile host="65bd71144e">
    <diagram id="XCeFqy1Ve7sehiKM4D4U" name="3－1：商品一覧">
        <mxGraphModel dx="1491" dy="1045" grid="1" gridSize="10" guides="1" tooltips="1" connect="1" arrows="1" fold="1" page="1" pageScale="1" pageWidth="827" pageHeight="1169" background="#ffffff" math="0" shadow="0">
            <root>
                <mxCell id="0"/>
                <mxCell id="1" parent="0"/>
                <mxCell id="os_XEo4qrnLwshf74Uvc-42" style="edgeStyle=none;html=1;entryX=0.25;entryY=0;entryDx=0;entryDy=0;dashed=1;fontColor=#030303;strokeColor=#000000;" parent="1" source="14" target="34" edge="1">
                    <mxGeometry relative="1" as="geometry"/>
                </mxCell>
                <mxCell id="14" value="TopController&#10;" style="swimlane;fontStyle=1;align=center;verticalAlign=top;childLayout=stackLayout;horizontal=1;startSize=26;horizontalStack=0;resizeParent=1;resizeParentMax=0;resizeLast=0;collapsible=1;marginBottom=0;fontColor=#030303;fillColor=#F7F7F7;swimlaneFillColor=#878787;" parent="1" vertex="1">
                    <mxGeometry x="170" y="670" width="190" height="114" as="geometry"/>
                </mxCell>
                <mxCell id="16" value="" style="line;strokeWidth=1;fillColor=none;align=left;verticalAlign=middle;spacingTop=-1;spacingLeft=3;spacingRight=3;rotatable=0;labelPosition=right;points=[];portConstraint=eastwest;fontColor=#030303;" parent="14" vertex="1">
                    <mxGeometry y="26" width="190" height="8" as="geometry"/>
                </mxCell>
                <mxCell id="17" value="+ getTopPage () : String&#10;+ getCartPage (): String" style="text;strokeColor=none;fillColor=none;align=left;verticalAlign=top;spacingLeft=4;spacingRight=4;overflow=hidden;rotatable=0;points=[[0,0.5],[1,0.5]];portConstraint=eastwest;fontColor=#030303;" parent="14" vertex="1">
                    <mxGeometry y="34" width="190" height="80" as="geometry"/>
                </mxCell>
                <mxCell id="22" value="TopForm" style="swimlane;fontStyle=1;align=center;verticalAlign=top;childLayout=stackLayout;horizontal=1;startSize=26;horizontalStack=0;resizeParent=1;resizeParentMax=0;resizeLast=0;collapsible=1;marginBottom=0;fontColor=#030303;fillColor=#F7F7F7;swimlaneFillColor=#A1A1A1;" parent="1" vertex="1">
                    <mxGeometry x="190" y="460" width="160" height="60" as="geometry"/>
                </mxCell>
                <mxCell id="24" value="" style="line;strokeWidth=1;fillColor=none;align=left;verticalAlign=middle;spacingTop=-1;spacingLeft=3;spacingRight=3;rotatable=0;labelPosition=right;points=[];portConstraint=eastwest;fontColor=#030303;" parent="22" vertex="1">
                    <mxGeometry y="26" width="160" height="34" as="geometry"/>
                </mxCell>
                <mxCell id="os_XEo4qrnLwshf74Uvc-41" style="edgeStyle=none;html=1;entryX=0.563;entryY=0;entryDx=0;entryDy=0;entryPerimeter=0;dashed=1;fontColor=#030303;strokeColor=#000000;" parent="1" source="26" target="34" edge="1">
                    <mxGeometry relative="1" as="geometry"/>
                </mxCell>
                <mxCell id="26" value="TopService" style="swimlane;fontStyle=1;align=center;verticalAlign=top;childLayout=stackLayout;horizontal=1;startSize=26;horizontalStack=0;resizeParent=1;resizeParentMax=0;resizeLast=0;collapsible=1;marginBottom=0;fontColor=#030303;fillColor=#F7F7F7;swimlaneFillColor=#A1A1A1;" parent="1" vertex="1">
                    <mxGeometry x="410" y="648" width="260" height="158" as="geometry"/>
                </mxCell>
                <mxCell id="os_XEo4qrnLwshf74Uvc-43" value="-  itemRepository : ItemRepository" style="text;strokeColor=none;fillColor=none;align=left;verticalAlign=top;spacingLeft=4;spacingRight=4;overflow=hidden;rotatable=0;points=[[0,0.5],[1,0.5]];portConstraint=eastwest;fontColor=#030303;" parent="26" vertex="1">
                    <mxGeometry y="26" width="260" height="26" as="geometry"/>
                </mxCell>
                <mxCell id="28" value="" style="line;strokeWidth=1;fillColor=none;align=left;verticalAlign=middle;spacingTop=-1;spacingLeft=3;spacingRight=3;rotatable=0;labelPosition=right;points=[];portConstraint=eastwest;fontColor=#030303;" parent="26" vertex="1">
                    <mxGeometry y="52" width="260" height="40" as="geometry"/>
                </mxCell>
                <mxCell id="29" value="+ getItemsByPage(to: int , from: int): List&lt;Item&gt;&#10;+ getItemsByName(name: String): List&lt;Item&gt;" style="text;strokeColor=none;fillColor=none;align=left;verticalAlign=top;spacingLeft=4;spacingRight=4;overflow=hidden;rotatable=0;points=[[0,0.5],[1,0.5]];portConstraint=eastwest;fontColor=#030303;" parent="26" vertex="1">
                    <mxGeometry y="92" width="260" height="66" as="geometry"/>
                </mxCell>
                <mxCell id="30" value="ItemRepository" style="swimlane;fontStyle=1;align=center;verticalAlign=top;childLayout=stackLayout;horizontal=1;startSize=26;horizontalStack=0;resizeParent=1;resizeParentMax=0;resizeLast=0;collapsible=1;marginBottom=0;fontColor=#030303;fillColor=#F7F7F7;swimlaneFillColor=#A1A1A1;" parent="1" vertex="1">
                    <mxGeometry x="750" y="640" width="220" height="134" as="geometry"/>
                </mxCell>
                <mxCell id="1bUh8iTh-euRcGHrfs77-36" value="&lt;span style=&quot;font-family: &amp;#34;helvetica&amp;#34; ; font-size: 12px ; font-style: normal ; letter-spacing: normal ; text-align: left ; text-indent: 0px ; text-transform: none ; word-spacing: 0px ; display: inline ; float: none&quot;&gt;&lt;font color=&quot;#000000&quot;&gt;-&amp;nbsp; jdbcTemplate :&amp;nbsp;&lt;/font&gt;&lt;/span&gt;&lt;span style=&quot;color: rgb(0 , 0 , 0) ; font-family: &amp;#34;helvetica&amp;#34;&quot;&gt;NamedJdbcTemplate&lt;/span&gt;" style="text;whiteSpace=wrap;html=1;fontColor=#030303;" parent="30" vertex="1">
                    <mxGeometry y="26" width="220" height="30" as="geometry"/>
                </mxCell>
                <mxCell id="32" value="" style="line;strokeWidth=1;fillColor=none;align=left;verticalAlign=middle;spacingTop=-1;spacingLeft=3;spacingRight=3;rotatable=0;labelPosition=right;points=[];portConstraint=eastwest;fontColor=#030303;" parent="30" vertex="1">
                    <mxGeometry y="56" width="220" height="8" as="geometry"/>
                </mxCell>
                <mxCell id="33" value="+ load(ItemId: int) : Item&#10;+ findPage(tp: int,from: int): List&lt;Item&gt;&#10;+ findByName(name: String): List&lt;Item&gt;" style="text;strokeColor=none;fillColor=none;align=left;verticalAlign=top;spacingLeft=4;spacingRight=4;overflow=hidden;rotatable=0;points=[[0,0.5],[1,0.5]];portConstraint=eastwest;fontColor=#030303;" parent="30" vertex="1">
                    <mxGeometry y="64" width="220" height="70" as="geometry"/>
                </mxCell>
                <mxCell id="34" value="Item" style="swimlane;fontStyle=1;align=center;verticalAlign=top;childLayout=stackLayout;horizontal=1;startSize=26;horizontalStack=0;resizeParent=1;resizeParentMax=0;resizeLast=0;collapsible=1;marginBottom=0;fontColor=#030303;fillColor=#F7F7F7;swimlaneFillColor=#A1A1A1;" parent="1" vertex="1">
                    <mxGeometry x="460" y="890" width="160" height="70" as="geometry"/>
                </mxCell>
                <mxCell id="36" value="" style="line;strokeWidth=1;fillColor=none;align=left;verticalAlign=middle;spacingTop=-1;spacingLeft=3;spacingRight=3;rotatable=0;labelPosition=right;points=[];portConstraint=eastwest;fontColor=#030303;" parent="34" vertex="1">
                    <mxGeometry y="26" width="160" height="44" as="geometry"/>
                </mxCell>
                <mxCell id="os_XEo4qrnLwshf74Uvc-39" style="edgeStyle=none;html=1;entryX=0.01;entryY=0.18;entryDx=0;entryDy=0;dashed=1;fontColor=#030303;strokeColor=#000000;entryPerimeter=0;" parent="1" target="33" edge="1">
                    <mxGeometry relative="1" as="geometry">
                        <mxPoint x="660" y="725" as="targetPoint"/>
                        <mxPoint x="670" y="719" as="sourcePoint"/>
                    </mxGeometry>
                </mxCell>
                <mxCell id="os_XEo4qrnLwshf74Uvc-40" style="edgeStyle=none;html=1;exitX=0;exitY=0.5;exitDx=0;exitDy=0;dashed=1;fontColor=#030303;strokeColor=#000000;entryX=0.862;entryY=0.02;entryDx=0;entryDy=0;entryPerimeter=0;" parent="1" source="33" target="34" edge="1">
                    <mxGeometry relative="1" as="geometry">
                        <mxPoint x="589.9999999999999" y="830" as="targetPoint"/>
                    </mxGeometry>
                </mxCell>
                <mxCell id="os_XEo4qrnLwshf74Uvc-48" style="edgeStyle=none;html=1;dashed=1;fontColor=#030303;strokeColor=#000000;" parent="1" source="os_XEo4qrnLwshf74Uvc-44" edge="1">
                    <mxGeometry relative="1" as="geometry">
                        <mxPoint x="350" y="500" as="targetPoint"/>
                    </mxGeometry>
                </mxCell>
                <mxCell id="os_XEo4qrnLwshf74Uvc-49" style="edgeStyle=none;html=1;entryX=0.536;entryY=0.002;entryDx=0;entryDy=0;entryPerimeter=0;dashed=1;fontColor=#030303;strokeColor=#000000;" parent="1" source="os_XEo4qrnLwshf74Uvc-44" target="26" edge="1">
                    <mxGeometry relative="1" as="geometry"/>
                </mxCell>
                <mxCell id="os_XEo4qrnLwshf74Uvc-44" value="TopRestController&#10;" style="swimlane;fontStyle=1;align=center;verticalAlign=top;childLayout=stackLayout;horizontal=1;startSize=26;horizontalStack=0;resizeParent=1;resizeParentMax=0;resizeLast=0;collapsible=1;marginBottom=0;fontColor=#030303;fillColor=#F7F7F7;swimlaneFillColor=#878787;" parent="1" vertex="1">
                    <mxGeometry x="410" y="430" width="280" height="140" as="geometry"/>
                </mxCell>
                <mxCell id="os_XEo4qrnLwshf74Uvc-45" value="-  topService : TopService" style="text;strokeColor=none;fillColor=none;align=left;verticalAlign=top;spacingLeft=4;spacingRight=4;overflow=hidden;rotatable=0;points=[[0,0.5],[1,0.5]];portConstraint=eastwest;fontColor=#030303;" parent="os_XEo4qrnLwshf74Uvc-44" vertex="1">
                    <mxGeometry y="26" width="280" height="26" as="geometry"/>
                </mxCell>
                <mxCell id="os_XEo4qrnLwshf74Uvc-46" value="" style="line;strokeWidth=1;fillColor=none;align=left;verticalAlign=middle;spacingTop=-1;spacingLeft=3;spacingRight=3;rotatable=0;labelPosition=right;points=[];portConstraint=eastwest;fontColor=#030303;" parent="os_XEo4qrnLwshf74Uvc-44" vertex="1">
                    <mxGeometry y="52" width="280" height="8" as="geometry"/>
                </mxCell>
                <mxCell id="os_XEo4qrnLwshf74Uvc-47" value="+ getItemsByPage(to: int, from:int, name: String): List&lt;Item&gt;&#10;" style="text;strokeColor=none;fillColor=none;align=left;verticalAlign=top;spacingLeft=4;spacingRight=4;overflow=hidden;rotatable=0;points=[[0,0.5],[1,0.5]];portConstraint=eastwest;fontColor=#030303;" parent="os_XEo4qrnLwshf74Uvc-44" vertex="1">
                    <mxGeometry y="60" width="280" height="80" as="geometry"/>
                </mxCell>
                <mxCell id="os_XEo4qrnLwshf74Uvc-50" value="アイテム表示を非同期処理で行いためにRestControllerを作成しました" style="text;html=1;strokeColor=#000000;fillColor=none;align=center;verticalAlign=middle;whiteSpace=wrap;rounded=0;fontColor=#030303;strokeWidth=1;perimeterSpacing=1;" parent="1" vertex="1">
                    <mxGeometry x="460" y="370" width="200" height="30" as="geometry"/>
                </mxCell>
                <mxCell id="37" style="edgeStyle=none;html=1;entryX=0.5;entryY=1;entryDx=0;entryDy=0;dashed=1;fontColor=#030303;strokeColor=#000000;exitX=0.5;exitY=0;exitDx=0;exitDy=0;" edge="1" parent="1" source="14" target="22">
                    <mxGeometry relative="1" as="geometry">
                        <mxPoint x="239.99791411042935" y="590" as="sourcePoint"/>
                        <mxPoint x="392.82" y="696" as="targetPoint"/>
                    </mxGeometry>
                </mxCell>
                <mxCell id="38" value="1" style="endArrow=open;html=1;endSize=12;startArrow=diamondThin;startSize=14;startFill=1;edgeStyle=orthogonalEdgeStyle;align=left;verticalAlign=bottom;exitX=0.5;exitY=1;exitDx=0;exitDy=0;strokeColor=#080606;" edge="1" parent="1" source="34">
                    <mxGeometry x="-1" y="3" relative="1" as="geometry">
                        <mxPoint x="400" y="910" as="sourcePoint"/>
                        <mxPoint x="540" y="1020" as="targetPoint"/>
                    </mxGeometry>
                </mxCell>
                <mxCell id="39" value="Topping" style="swimlane;fontStyle=1;align=center;verticalAlign=top;childLayout=stackLayout;horizontal=1;startSize=26;horizontalStack=0;resizeParent=1;resizeParentMax=0;resizeLast=0;collapsible=1;marginBottom=0;fontColor=#030303;fillColor=#F7F7F7;swimlaneFillColor=#A1A1A1;" vertex="1" parent="1">
                    <mxGeometry x="460" y="1020" width="160" height="70" as="geometry"/>
                </mxCell>
                <mxCell id="40" value="" style="line;strokeWidth=1;fillColor=none;align=left;verticalAlign=middle;spacingTop=-1;spacingLeft=3;spacingRight=3;rotatable=0;labelPosition=right;points=[];portConstraint=eastwest;fontColor=#030303;" vertex="1" parent="39">
                    <mxGeometry y="26" width="160" height="44" as="geometry"/>
                </mxCell>
            </root>
        </mxGraphModel>
    </diagram>
    <diagram id="9gxxDRi2rpcdokk_FQ2d" name="1-1. ユーザを登録する">
        <mxGraphModel dx="820" dy="1744" grid="1" gridSize="10" guides="1" tooltips="1" connect="1" arrows="1" fold="1" page="1" pageScale="1" pageWidth="827" pageHeight="1169" math="0" shadow="0">
            <root>
                <mxCell id="avSyo-joE_HiTTbbUSWk-0"/>
                <mxCell id="avSyo-joE_HiTTbbUSWk-1" parent="avSyo-joE_HiTTbbUSWk-0"/>
                <mxCell id="vtuhATW-1q7R0sfq8Xhz-2" value="SignupController" style="swimlane;fontStyle=1;align=center;verticalAlign=top;childLayout=stackLayout;horizontal=1;startSize=26;horizontalStack=0;resizeParent=1;resizeParentMax=0;resizeLast=0;collapsible=1;marginBottom=0;" parent="avSyo-joE_HiTTbbUSWk-1" vertex="1">
                    <mxGeometry x="370" y="170" width="250" height="100" as="geometry"/>
                </mxCell>
                <mxCell id="vtuhATW-1q7R0sfq8Xhz-3" value="-  signupService : SignupService" style="text;strokeColor=none;fillColor=none;align=left;verticalAlign=top;spacingLeft=4;spacingRight=4;overflow=hidden;rotatable=0;points=[[0,0.5],[1,0.5]];portConstraint=eastwest;" parent="vtuhATW-1q7R0sfq8Xhz-2" vertex="1">
                    <mxGeometry y="26" width="250" height="26" as="geometry"/>
                </mxCell>
                <mxCell id="vtuhATW-1q7R0sfq8Xhz-4" value="" style="line;strokeWidth=1;fillColor=none;align=left;verticalAlign=middle;spacingTop=-1;spacingLeft=3;spacingRight=3;rotatable=0;labelPosition=right;points=[];portConstraint=eastwest;" parent="vtuhATW-1q7R0sfq8Xhz-2" vertex="1">
                    <mxGeometry y="52" width="250" height="8" as="geometry"/>
                </mxCell>
                <mxCell id="vtuhATW-1q7R0sfq8Xhz-5" value="+  getSignupPage(userForm : UserForm) : String&#10;+  registerUser(userForm : UserForm) : String" style="text;strokeColor=none;fillColor=none;align=left;verticalAlign=top;spacingLeft=4;spacingRight=4;overflow=hidden;rotatable=0;points=[[0,0.5],[1,0.5]];portConstraint=eastwest;" parent="vtuhATW-1q7R0sfq8Xhz-2" vertex="1">
                    <mxGeometry y="60" width="250" height="40" as="geometry"/>
                </mxCell>
                <mxCell id="vtuhATW-1q7R0sfq8Xhz-7" value="SignupService" style="swimlane;fontStyle=1;align=center;verticalAlign=top;childLayout=stackLayout;horizontal=1;startSize=26;horizontalStack=0;resizeParent=1;resizeParentMax=0;resizeLast=0;collapsible=1;marginBottom=0;" parent="avSyo-joE_HiTTbbUSWk-1" vertex="1">
                    <mxGeometry x="750" y="177" width="320" height="100" as="geometry"/>
                </mxCell>
                <mxCell id="vtuhATW-1q7R0sfq8Xhz-8" value="-  userRepository : UserRepository" style="text;strokeColor=none;fillColor=none;align=left;verticalAlign=top;spacingLeft=4;spacingRight=4;overflow=hidden;rotatable=0;points=[[0,0.5],[1,0.5]];portConstraint=eastwest;" parent="vtuhATW-1q7R0sfq8Xhz-7" vertex="1">
                    <mxGeometry y="26" width="320" height="26" as="geometry"/>
                </mxCell>
                <mxCell id="vtuhATW-1q7R0sfq8Xhz-9" value="" style="line;strokeWidth=1;fillColor=none;align=left;verticalAlign=middle;spacingTop=-1;spacingLeft=3;spacingRight=3;rotatable=0;labelPosition=right;points=[];portConstraint=eastwest;" parent="vtuhATW-1q7R0sfq8Xhz-7" vertex="1">
                    <mxGeometry y="52" width="320" height="8" as="geometry"/>
                </mxCell>
                <mxCell id="vtuhATW-1q7R0sfq8Xhz-10" value="+ checkSameMailAddress (mailAddress : String)  : User&#10;+ redisterUser(user : User) : void" style="text;strokeColor=none;fillColor=none;align=left;verticalAlign=top;spacingLeft=4;spacingRight=4;overflow=hidden;rotatable=0;points=[[0,0.5],[1,0.5]];portConstraint=eastwest;" parent="vtuhATW-1q7R0sfq8Xhz-7" vertex="1">
                    <mxGeometry y="60" width="320" height="40" as="geometry"/>
                </mxCell>
                <mxCell id="vtuhATW-1q7R0sfq8Xhz-15" value="" style="endArrow=open;endSize=12;dashed=1;html=1;" parent="avSyo-joE_HiTTbbUSWk-1" edge="1">
                    <mxGeometry width="160" relative="1" as="geometry">
                        <mxPoint x="620" y="219.55" as="sourcePoint"/>
                        <mxPoint x="750" y="220" as="targetPoint"/>
                    </mxGeometry>
                </mxCell>
                <mxCell id="vtuhATW-1q7R0sfq8Xhz-16" value="UserRepository" style="swimlane;fontStyle=1;align=center;verticalAlign=top;childLayout=stackLayout;horizontal=1;startSize=26;horizontalStack=0;resizeParent=1;resizeParentMax=0;resizeLast=0;collapsible=1;marginBottom=0;" parent="avSyo-joE_HiTTbbUSWk-1" vertex="1">
                    <mxGeometry x="1170" y="170" width="350" height="120" as="geometry"/>
                </mxCell>
                <mxCell id="vtuhATW-1q7R0sfq8Xhz-17" value="- jdbcTemplate :  NamedJdbcTemplate" style="text;strokeColor=none;fillColor=none;align=left;verticalAlign=top;spacingLeft=4;spacingRight=4;overflow=hidden;rotatable=0;points=[[0,0.5],[1,0.5]];portConstraint=eastwest;" parent="vtuhATW-1q7R0sfq8Xhz-16" vertex="1">
                    <mxGeometry y="26" width="350" height="26" as="geometry"/>
                </mxCell>
                <mxCell id="vtuhATW-1q7R0sfq8Xhz-18" value="" style="line;strokeWidth=1;fillColor=none;align=left;verticalAlign=middle;spacingTop=-1;spacingLeft=3;spacingRight=3;rotatable=0;labelPosition=right;points=[];portConstraint=eastwest;" parent="vtuhATW-1q7R0sfq8Xhz-16" vertex="1">
                    <mxGeometry y="52" width="350" height="8" as="geometry"/>
                </mxCell>
                <mxCell id="vtuhATW-1q7R0sfq8Xhz-19" value="+ findByMailAddress(mailAddress : String) :  User&#10;+ insertOne (user : User) : void " style="text;strokeColor=none;fillColor=none;align=left;verticalAlign=top;spacingLeft=4;spacingRight=4;overflow=hidden;rotatable=0;points=[[0,0.5],[1,0.5]];portConstraint=eastwest;" parent="vtuhATW-1q7R0sfq8Xhz-16" vertex="1">
                    <mxGeometry y="60" width="350" height="60" as="geometry"/>
                </mxCell>
                <mxCell id="vtuhATW-1q7R0sfq8Xhz-20" value="" style="endArrow=open;endSize=12;dashed=1;html=1;entryX=0.003;entryY=0.897;entryDx=0;entryDy=0;entryPerimeter=0;exitX=1;exitY=0.5;exitDx=0;exitDy=0;" parent="avSyo-joE_HiTTbbUSWk-1" source="vtuhATW-1q7R0sfq8Xhz-8" target="vtuhATW-1q7R0sfq8Xhz-17" edge="1">
                    <mxGeometry width="160" relative="1" as="geometry">
                        <mxPoint x="1010" y="219.43999999999994" as="sourcePoint"/>
                        <mxPoint x="1140.0000000000002" y="219.89" as="targetPoint"/>
                    </mxGeometry>
                </mxCell>
                <mxCell id="vtuhATW-1q7R0sfq8Xhz-26" value="User" style="swimlane;fontStyle=0;childLayout=stackLayout;horizontal=1;startSize=26;fillColor=none;horizontalStack=0;resizeParent=1;resizeParentMax=0;resizeLast=0;collapsible=1;marginBottom=0;" parent="avSyo-joE_HiTTbbUSWk-1" vertex="1">
                    <mxGeometry x="830" y="350" width="140" height="202" as="geometry">
                        <mxRectangle x="510" y="450" width="60" height="26" as="alternateBounds"/>
                    </mxGeometry>
                </mxCell>
                <mxCell id="vtuhATW-1q7R0sfq8Xhz-27" value="- id : integer" style="text;strokeColor=none;fillColor=none;align=left;verticalAlign=top;spacingLeft=4;spacingRight=4;overflow=hidden;rotatable=0;points=[[0,0.5],[1,0.5]];portConstraint=eastwest;" parent="vtuhATW-1q7R0sfq8Xhz-26" vertex="1">
                    <mxGeometry y="26" width="140" height="26" as="geometry"/>
                </mxCell>
                <mxCell id="vtuhATW-1q7R0sfq8Xhz-28" value="- name : String" style="text;strokeColor=none;fillColor=none;align=left;verticalAlign=top;spacingLeft=4;spacingRight=4;overflow=hidden;rotatable=0;points=[[0,0.5],[1,0.5]];portConstraint=eastwest;" parent="vtuhATW-1q7R0sfq8Xhz-26" vertex="1">
                    <mxGeometry y="52" width="140" height="26" as="geometry"/>
                </mxCell>
                <mxCell id="vtuhATW-1q7R0sfq8Xhz-29" value="- email : String&#10;" style="text;strokeColor=none;fillColor=none;align=left;verticalAlign=top;spacingLeft=4;spacingRight=4;overflow=hidden;rotatable=0;points=[[0,0.5],[1,0.5]];portConstraint=eastwest;" parent="vtuhATW-1q7R0sfq8Xhz-26" vertex="1">
                    <mxGeometry y="78" width="140" height="20" as="geometry"/>
                </mxCell>
                <mxCell id="vtuhATW-1q7R0sfq8Xhz-30" value="- password : String" style="text;strokeColor=none;fillColor=none;align=left;verticalAlign=top;spacingLeft=4;spacingRight=4;overflow=hidden;rotatable=0;points=[[0,0.5],[1,0.5]];portConstraint=eastwest;" parent="vtuhATW-1q7R0sfq8Xhz-26" vertex="1">
                    <mxGeometry y="98" width="140" height="26" as="geometry"/>
                </mxCell>
                <mxCell id="vtuhATW-1q7R0sfq8Xhz-31" value="- zipcode : String" style="text;strokeColor=none;fillColor=none;align=left;verticalAlign=top;spacingLeft=4;spacingRight=4;overflow=hidden;rotatable=0;points=[[0,0.5],[1,0.5]];portConstraint=eastwest;" parent="vtuhATW-1q7R0sfq8Xhz-26" vertex="1">
                    <mxGeometry y="124" width="140" height="26" as="geometry"/>
                </mxCell>
                <mxCell id="vtuhATW-1q7R0sfq8Xhz-32" value="- address : String" style="text;strokeColor=none;fillColor=none;align=left;verticalAlign=top;spacingLeft=4;spacingRight=4;overflow=hidden;rotatable=0;points=[[0,0.5],[1,0.5]];portConstraint=eastwest;" parent="vtuhATW-1q7R0sfq8Xhz-26" vertex="1">
                    <mxGeometry y="150" width="140" height="26" as="geometry"/>
                </mxCell>
                <mxCell id="vtuhATW-1q7R0sfq8Xhz-33" value="- telephone : String" style="text;strokeColor=none;fillColor=none;align=left;verticalAlign=top;spacingLeft=4;spacingRight=4;overflow=hidden;rotatable=0;points=[[0,0.5],[1,0.5]];portConstraint=eastwest;" parent="vtuhATW-1q7R0sfq8Xhz-26" vertex="1">
                    <mxGeometry y="176" width="140" height="26" as="geometry"/>
                </mxCell>
                <mxCell id="vtuhATW-1q7R0sfq8Xhz-34" value="" style="endArrow=open;endSize=12;dashed=1;html=1;entryX=-0.025;entryY=-0.019;entryDx=0;entryDy=0;entryPerimeter=0;" parent="avSyo-joE_HiTTbbUSWk-1" target="vtuhATW-1q7R0sfq8Xhz-27" edge="1">
                    <mxGeometry width="160" relative="1" as="geometry">
                        <mxPoint x="630" y="270" as="sourcePoint"/>
                        <mxPoint x="760" y="230" as="targetPoint"/>
                        <Array as="points"/>
                    </mxGeometry>
                </mxCell>
                <mxCell id="vtuhATW-1q7R0sfq8Xhz-35" value="" style="endArrow=open;endSize=12;dashed=1;html=1;entryX=0.439;entryY=-0.007;entryDx=0;entryDy=0;entryPerimeter=0;" parent="avSyo-joE_HiTTbbUSWk-1" target="vtuhATW-1q7R0sfq8Xhz-26" edge="1">
                    <mxGeometry width="160" relative="1" as="geometry">
                        <mxPoint x="890" y="277" as="sourcePoint"/>
                        <mxPoint x="1086.5" y="382.50599999999986" as="targetPoint"/>
                        <Array as="points"/>
                    </mxGeometry>
                </mxCell>
                <mxCell id="vtuhATW-1q7R0sfq8Xhz-36" value="" style="endArrow=open;endSize=12;dashed=1;html=1;exitX=0.036;exitY=1.025;exitDx=0;exitDy=0;exitPerimeter=0;entryX=1;entryY=0.099;entryDx=0;entryDy=0;entryPerimeter=0;" parent="avSyo-joE_HiTTbbUSWk-1" source="vtuhATW-1q7R0sfq8Xhz-19" target="vtuhATW-1q7R0sfq8Xhz-26" edge="1">
                    <mxGeometry width="160" relative="1" as="geometry">
                        <mxPoint x="980" y="310" as="sourcePoint"/>
                        <mxPoint x="980" y="370" as="targetPoint"/>
                        <Array as="points"/>
                    </mxGeometry>
                </mxCell>
                <mxCell id="vtuhATW-1q7R0sfq8Xhz-37" value="UserForm" style="swimlane;fontStyle=0;childLayout=stackLayout;horizontal=1;startSize=26;fillColor=none;horizontalStack=0;resizeParent=1;resizeParentMax=0;resizeLast=0;collapsible=1;marginBottom=0;" parent="avSyo-joE_HiTTbbUSWk-1" vertex="1">
                    <mxGeometry x="425" y="-130" width="150" height="198" as="geometry">
                        <mxRectangle x="510" y="450" width="60" height="26" as="alternateBounds"/>
                    </mxGeometry>
                </mxCell>
                <mxCell id="vtuhATW-1q7R0sfq8Xhz-39" value="- name : String" style="text;strokeColor=none;fillColor=none;align=left;verticalAlign=top;spacingLeft=4;spacingRight=4;overflow=hidden;rotatable=0;points=[[0,0.5],[1,0.5]];portConstraint=eastwest;" parent="vtuhATW-1q7R0sfq8Xhz-37" vertex="1">
                    <mxGeometry y="26" width="150" height="26" as="geometry"/>
                </mxCell>
                <mxCell id="vtuhATW-1q7R0sfq8Xhz-40" value="- email : String&#10;" style="text;strokeColor=none;fillColor=none;align=left;verticalAlign=top;spacingLeft=4;spacingRight=4;overflow=hidden;rotatable=0;points=[[0,0.5],[1,0.5]];portConstraint=eastwest;" parent="vtuhATW-1q7R0sfq8Xhz-37" vertex="1">
                    <mxGeometry y="52" width="150" height="20" as="geometry"/>
                </mxCell>
                <mxCell id="vtuhATW-1q7R0sfq8Xhz-41" value="- password : String" style="text;strokeColor=none;fillColor=none;align=left;verticalAlign=top;spacingLeft=4;spacingRight=4;overflow=hidden;rotatable=0;points=[[0,0.5],[1,0.5]];portConstraint=eastwest;" parent="vtuhATW-1q7R0sfq8Xhz-37" vertex="1">
                    <mxGeometry y="72" width="150" height="28" as="geometry"/>
                </mxCell>
                <mxCell id="wRKbm2FVAy5CpnNHOE-X-0" value="&lt;font color=&quot;#000000&quot;&gt;- confirm password : String&lt;/font&gt;" style="text;html=1;align=center;verticalAlign=middle;resizable=0;points=[];autosize=1;strokeColor=none;fillColor=none;fontColor=#FFFFFF;" parent="vtuhATW-1q7R0sfq8Xhz-37" vertex="1">
                    <mxGeometry y="100" width="150" height="20" as="geometry"/>
                </mxCell>
                <mxCell id="vtuhATW-1q7R0sfq8Xhz-42" value="- zipcode : String" style="text;strokeColor=none;fillColor=none;align=left;verticalAlign=top;spacingLeft=4;spacingRight=4;overflow=hidden;rotatable=0;points=[[0,0.5],[1,0.5]];portConstraint=eastwest;" parent="vtuhATW-1q7R0sfq8Xhz-37" vertex="1">
                    <mxGeometry y="120" width="150" height="26" as="geometry"/>
                </mxCell>
                <mxCell id="vtuhATW-1q7R0sfq8Xhz-43" value="- address : String" style="text;strokeColor=none;fillColor=none;align=left;verticalAlign=top;spacingLeft=4;spacingRight=4;overflow=hidden;rotatable=0;points=[[0,0.5],[1,0.5]];portConstraint=eastwest;" parent="vtuhATW-1q7R0sfq8Xhz-37" vertex="1">
                    <mxGeometry y="146" width="150" height="26" as="geometry"/>
                </mxCell>
                <mxCell id="vtuhATW-1q7R0sfq8Xhz-44" value="- telephone : String" style="text;strokeColor=none;fillColor=none;align=left;verticalAlign=top;spacingLeft=4;spacingRight=4;overflow=hidden;rotatable=0;points=[[0,0.5],[1,0.5]];portConstraint=eastwest;" parent="vtuhATW-1q7R0sfq8Xhz-37" vertex="1">
                    <mxGeometry y="172" width="150" height="26" as="geometry"/>
                </mxCell>
                <mxCell id="vtuhATW-1q7R0sfq8Xhz-45" value="" style="endArrow=open;endSize=12;dashed=1;html=1;entryX=0.504;entryY=1.135;entryDx=0;entryDy=0;entryPerimeter=0;exitX=0.5;exitY=0;exitDx=0;exitDy=0;" parent="avSyo-joE_HiTTbbUSWk-1" source="vtuhATW-1q7R0sfq8Xhz-2" target="vtuhATW-1q7R0sfq8Xhz-44" edge="1">
                    <mxGeometry width="160" relative="1" as="geometry">
                        <mxPoint x="480" y="160.00000000000017" as="sourcePoint"/>
                        <mxPoint x="610" y="160.45" as="targetPoint"/>
                    </mxGeometry>
                </mxCell>
                <mxCell id="yn6UgwUZzbVxmuBqfCbm-0" value="login.html" style="swimlane;fontStyle=1;align=center;verticalAlign=top;childLayout=stackLayout;horizontal=1;startSize=26;horizontalStack=0;resizeParent=1;resizeParentMax=0;resizeLast=0;collapsible=1;marginBottom=0;" parent="avSyo-joE_HiTTbbUSWk-1" vertex="1">
                    <mxGeometry x="40" y="-387" width="160" height="34" as="geometry"/>
                </mxCell>
                <mxCell id="yn6UgwUZzbVxmuBqfCbm-1" value="" style="line;strokeWidth=1;fillColor=none;align=left;verticalAlign=middle;spacingTop=-1;spacingLeft=3;spacingRight=3;rotatable=0;labelPosition=right;points=[];portConstraint=eastwest;" parent="yn6UgwUZzbVxmuBqfCbm-0" vertex="1">
                    <mxGeometry y="26" width="160" height="8" as="geometry"/>
                </mxCell>
                <mxCell id="yn6UgwUZzbVxmuBqfCbm-2" value="signup.html" style="swimlane;fontStyle=1;align=center;verticalAlign=top;childLayout=stackLayout;horizontal=1;startSize=26;horizontalStack=0;resizeParent=1;resizeParentMax=0;resizeLast=0;collapsible=1;marginBottom=0;" parent="avSyo-joE_HiTTbbUSWk-1" vertex="1">
                    <mxGeometry x="40" y="-277" width="160" height="34" as="geometry"/>
                </mxCell>
                <mxCell id="yn6UgwUZzbVxmuBqfCbm-3" value="" style="line;strokeWidth=1;fillColor=none;align=left;verticalAlign=middle;spacingTop=-1;spacingLeft=3;spacingRight=3;rotatable=0;labelPosition=right;points=[];portConstraint=eastwest;" parent="yn6UgwUZzbVxmuBqfCbm-2" vertex="1">
                    <mxGeometry y="26" width="160" height="8" as="geometry"/>
                </mxCell>
                <mxCell id="yn6UgwUZzbVxmuBqfCbm-4" value="GetRequest : getSignup" style="text;html=1;strokeColor=none;fillColor=none;align=center;verticalAlign=middle;whiteSpace=wrap;rounded=0;" parent="avSyo-joE_HiTTbbUSWk-1" vertex="1">
                    <mxGeometry x="230" y="-400" width="60" height="30" as="geometry"/>
                </mxCell>
                <mxCell id="yn6UgwUZzbVxmuBqfCbm-5" value="forward" style="text;html=1;strokeColor=none;fillColor=none;align=center;verticalAlign=middle;whiteSpace=wrap;rounded=0;" parent="avSyo-joE_HiTTbbUSWk-1" vertex="1">
                    <mxGeometry x="200" y="-300" width="60" height="30" as="geometry"/>
                </mxCell>
                <mxCell id="yn6UgwUZzbVxmuBqfCbm-6" value="redirect" style="text;html=1;strokeColor=none;fillColor=none;align=center;verticalAlign=middle;whiteSpace=wrap;rounded=0;" parent="avSyo-joE_HiTTbbUSWk-1" vertex="1">
                    <mxGeometry x="190" y="-342" width="60" height="30" as="geometry"/>
                </mxCell>
            </root>
        </mxGraphModel>
    </diagram>
    <diagram id="qoUn1Tw5sDRvddmIJcue" name="2-1. ログイン・ログアウト">
        <mxGraphModel dx="1093" dy="767" grid="1" gridSize="10" guides="1" tooltips="1" connect="1" arrows="1" fold="1" page="1" pageScale="1" pageWidth="827" pageHeight="1169" math="0" shadow="0">
            <root>
                <mxCell id="RhU2ml9dWSXJQ6e1RCNh-0"/>
                <mxCell id="RhU2ml9dWSXJQ6e1RCNh-1" parent="RhU2ml9dWSXJQ6e1RCNh-0"/>
                <mxCell id="C79MKMgyCHu84YXyB02I-0" value="LoginController" style="swimlane;fontStyle=1;align=center;verticalAlign=top;childLayout=stackLayout;horizontal=1;startSize=26;horizontalStack=0;resizeParent=1;resizeParentMax=0;resizeLast=0;collapsible=1;marginBottom=0;" parent="RhU2ml9dWSXJQ6e1RCNh-1" vertex="1">
                    <mxGeometry x="150" y="270" width="250" height="130" as="geometry"/>
                </mxCell>
                <mxCell id="C79MKMgyCHu84YXyB02I-1" value="-  loginService : LoginService" style="text;strokeColor=none;fillColor=none;align=left;verticalAlign=top;spacingLeft=4;spacingRight=4;overflow=hidden;rotatable=0;points=[[0,0.5],[1,0.5]];portConstraint=eastwest;" parent="C79MKMgyCHu84YXyB02I-0" vertex="1">
                    <mxGeometry y="26" width="250" height="26" as="geometry"/>
                </mxCell>
                <mxCell id="C79MKMgyCHu84YXyB02I-2" value="" style="line;strokeWidth=1;fillColor=none;align=left;verticalAlign=middle;spacingTop=-1;spacingLeft=3;spacingRight=3;rotatable=0;labelPosition=right;points=[];portConstraint=eastwest;" parent="C79MKMgyCHu84YXyB02I-0" vertex="1">
                    <mxGeometry y="52" width="250" height="8" as="geometry"/>
                </mxCell>
                <mxCell id="C79MKMgyCHu84YXyB02I-3" value="+  getLoginPage(loginForm : LoginForm) : String&#10;+  login(loginForm : LoginForm) : String&#10;+ logout() : String" style="text;strokeColor=none;fillColor=none;align=left;verticalAlign=top;spacingLeft=4;spacingRight=4;overflow=hidden;rotatable=0;points=[[0,0.5],[1,0.5]];portConstraint=eastwest;" parent="C79MKMgyCHu84YXyB02I-0" vertex="1">
                    <mxGeometry y="60" width="250" height="70" as="geometry"/>
                </mxCell>
                <mxCell id="7ZQ1iZcj4DYMnzYo21Ie-0" value="LoginService" style="swimlane;fontStyle=1;align=center;verticalAlign=top;childLayout=stackLayout;horizontal=1;startSize=26;horizontalStack=0;resizeParent=1;resizeParentMax=0;resizeLast=0;collapsible=1;marginBottom=0;" parent="RhU2ml9dWSXJQ6e1RCNh-1" vertex="1">
                    <mxGeometry x="580" y="270" width="400" height="100" as="geometry"/>
                </mxCell>
                <mxCell id="7ZQ1iZcj4DYMnzYo21Ie-1" value="-  loginRepository : LoginRepository" style="text;strokeColor=none;fillColor=none;align=left;verticalAlign=top;spacingLeft=4;spacingRight=4;overflow=hidden;rotatable=0;points=[[0,0.5],[1,0.5]];portConstraint=eastwest;" parent="7ZQ1iZcj4DYMnzYo21Ie-0" vertex="1">
                    <mxGeometry y="26" width="400" height="26" as="geometry"/>
                </mxCell>
                <mxCell id="7ZQ1iZcj4DYMnzYo21Ie-2" value="" style="line;strokeWidth=1;fillColor=none;align=left;verticalAlign=middle;spacingTop=-1;spacingLeft=3;spacingRight=3;rotatable=0;labelPosition=right;points=[];portConstraint=eastwest;" parent="7ZQ1iZcj4DYMnzYo21Ie-0" vertex="1">
                    <mxGeometry y="52" width="400" height="8" as="geometry"/>
                </mxCell>
                <mxCell id="7ZQ1iZcj4DYMnzYo21Ie-3" value="+ login(mailAddress : String, password String) :  User" style="text;strokeColor=none;fillColor=none;align=left;verticalAlign=top;spacingLeft=4;spacingRight=4;overflow=hidden;rotatable=0;points=[[0,0.5],[1,0.5]];portConstraint=eastwest;" parent="7ZQ1iZcj4DYMnzYo21Ie-0" vertex="1">
                    <mxGeometry y="60" width="400" height="40" as="geometry"/>
                </mxCell>
                <mxCell id="IoegstEgRIe-HwTLqFYB-0" value="User" style="swimlane;fontStyle=0;childLayout=stackLayout;horizontal=1;startSize=26;fillColor=none;horizontalStack=0;resizeParent=1;resizeParentMax=0;resizeLast=0;collapsible=1;marginBottom=0;" parent="RhU2ml9dWSXJQ6e1RCNh-1" vertex="1">
                    <mxGeometry x="660" y="530" width="140" height="202" as="geometry">
                        <mxRectangle x="510" y="450" width="60" height="26" as="alternateBounds"/>
                    </mxGeometry>
                </mxCell>
                <mxCell id="IoegstEgRIe-HwTLqFYB-1" value="- id : integer" style="text;strokeColor=none;fillColor=none;align=left;verticalAlign=top;spacingLeft=4;spacingRight=4;overflow=hidden;rotatable=0;points=[[0,0.5],[1,0.5]];portConstraint=eastwest;" parent="IoegstEgRIe-HwTLqFYB-0" vertex="1">
                    <mxGeometry y="26" width="140" height="26" as="geometry"/>
                </mxCell>
                <mxCell id="IoegstEgRIe-HwTLqFYB-2" value="- name : String" style="text;strokeColor=none;fillColor=none;align=left;verticalAlign=top;spacingLeft=4;spacingRight=4;overflow=hidden;rotatable=0;points=[[0,0.5],[1,0.5]];portConstraint=eastwest;" parent="IoegstEgRIe-HwTLqFYB-0" vertex="1">
                    <mxGeometry y="52" width="140" height="26" as="geometry"/>
                </mxCell>
                <mxCell id="IoegstEgRIe-HwTLqFYB-3" value="- email : String&#10;" style="text;strokeColor=none;fillColor=none;align=left;verticalAlign=top;spacingLeft=4;spacingRight=4;overflow=hidden;rotatable=0;points=[[0,0.5],[1,0.5]];portConstraint=eastwest;" parent="IoegstEgRIe-HwTLqFYB-0" vertex="1">
                    <mxGeometry y="78" width="140" height="20" as="geometry"/>
                </mxCell>
                <mxCell id="IoegstEgRIe-HwTLqFYB-4" value="- password : String" style="text;strokeColor=none;fillColor=none;align=left;verticalAlign=top;spacingLeft=4;spacingRight=4;overflow=hidden;rotatable=0;points=[[0,0.5],[1,0.5]];portConstraint=eastwest;" parent="IoegstEgRIe-HwTLqFYB-0" vertex="1">
                    <mxGeometry y="98" width="140" height="26" as="geometry"/>
                </mxCell>
                <mxCell id="IoegstEgRIe-HwTLqFYB-5" value="- zipcode : String" style="text;strokeColor=none;fillColor=none;align=left;verticalAlign=top;spacingLeft=4;spacingRight=4;overflow=hidden;rotatable=0;points=[[0,0.5],[1,0.5]];portConstraint=eastwest;" parent="IoegstEgRIe-HwTLqFYB-0" vertex="1">
                    <mxGeometry y="124" width="140" height="26" as="geometry"/>
                </mxCell>
                <mxCell id="IoegstEgRIe-HwTLqFYB-6" value="- address : String" style="text;strokeColor=none;fillColor=none;align=left;verticalAlign=top;spacingLeft=4;spacingRight=4;overflow=hidden;rotatable=0;points=[[0,0.5],[1,0.5]];portConstraint=eastwest;" parent="IoegstEgRIe-HwTLqFYB-0" vertex="1">
                    <mxGeometry y="150" width="140" height="26" as="geometry"/>
                </mxCell>
                <mxCell id="IoegstEgRIe-HwTLqFYB-7" value="- telephone : String" style="text;strokeColor=none;fillColor=none;align=left;verticalAlign=top;spacingLeft=4;spacingRight=4;overflow=hidden;rotatable=0;points=[[0,0.5],[1,0.5]];portConstraint=eastwest;" parent="IoegstEgRIe-HwTLqFYB-0" vertex="1">
                    <mxGeometry y="176" width="140" height="26" as="geometry"/>
                </mxCell>
                <mxCell id="14aSo5TN5ax7VM9fEwZt-0" value="LoginRepository" style="swimlane;fontStyle=1;align=center;verticalAlign=top;childLayout=stackLayout;horizontal=1;startSize=26;horizontalStack=0;resizeParent=1;resizeParentMax=0;resizeLast=0;collapsible=1;marginBottom=0;" parent="RhU2ml9dWSXJQ6e1RCNh-1" vertex="1">
                    <mxGeometry x="1040" y="260" width="520" height="120" as="geometry"/>
                </mxCell>
                <mxCell id="14aSo5TN5ax7VM9fEwZt-1" value="-  jdbcTemplate : NamedJdbcTemplate" style="text;strokeColor=none;fillColor=none;align=left;verticalAlign=top;spacingLeft=4;spacingRight=4;overflow=hidden;rotatable=0;points=[[0,0.5],[1,0.5]];portConstraint=eastwest;" parent="14aSo5TN5ax7VM9fEwZt-0" vertex="1">
                    <mxGeometry y="26" width="520" height="26" as="geometry"/>
                </mxCell>
                <mxCell id="dc5PC9iF0QZh1yLudlH4-1" value="" style="endArrow=open;endSize=12;dashed=1;html=1;entryX=-0.001;entryY=0.806;entryDx=0;entryDy=0;entryPerimeter=0;" parent="14aSo5TN5ax7VM9fEwZt-0" target="14aSo5TN5ax7VM9fEwZt-2" edge="1">
                    <mxGeometry width="160" relative="1" as="geometry">
                        <mxPoint x="-60" y="58" as="sourcePoint"/>
                        <mxPoint x="39.04000000000019" y="55.441999999999894" as="targetPoint"/>
                    </mxGeometry>
                </mxCell>
                <mxCell id="14aSo5TN5ax7VM9fEwZt-2" value="" style="line;strokeWidth=1;fillColor=none;align=left;verticalAlign=middle;spacingTop=-1;spacingLeft=3;spacingRight=3;rotatable=0;labelPosition=right;points=[];portConstraint=eastwest;" parent="14aSo5TN5ax7VM9fEwZt-0" vertex="1">
                    <mxGeometry y="52" width="520" height="8" as="geometry"/>
                </mxCell>
                <mxCell id="14aSo5TN5ax7VM9fEwZt-3" value="+ findByMailAddressAndPassword(mailAddress : String, password String) :  User" style="text;strokeColor=none;fillColor=none;align=left;verticalAlign=top;spacingLeft=4;spacingRight=4;overflow=hidden;rotatable=0;points=[[0,0.5],[1,0.5]];portConstraint=eastwest;" parent="14aSo5TN5ax7VM9fEwZt-0" vertex="1">
                    <mxGeometry y="60" width="520" height="60" as="geometry"/>
                </mxCell>
                <mxCell id="dc5PC9iF0QZh1yLudlH4-0" value="" style="endArrow=open;endSize=12;dashed=1;html=1;entryX=-0.003;entryY=0.897;entryDx=0;entryDy=0;entryPerimeter=0;" parent="RhU2ml9dWSXJQ6e1RCNh-1" target="7ZQ1iZcj4DYMnzYo21Ie-1" edge="1">
                    <mxGeometry width="160" relative="1" as="geometry">
                        <mxPoint x="400" y="319.44000000000017" as="sourcePoint"/>
                        <mxPoint x="530.0000000000002" y="319.89" as="targetPoint"/>
                    </mxGeometry>
                </mxCell>
                <mxCell id="dc5PC9iF0QZh1yLudlH4-2" value="" style="endArrow=open;endSize=12;dashed=1;html=1;" parent="RhU2ml9dWSXJQ6e1RCNh-1" edge="1">
                    <mxGeometry width="160" relative="1" as="geometry">
                        <mxPoint x="1110" y="390" as="sourcePoint"/>
                        <mxPoint x="810" y="540" as="targetPoint"/>
                        <Array as="points">
                            <mxPoint x="1110" y="380"/>
                        </Array>
                    </mxGeometry>
                </mxCell>
                <mxCell id="dc5PC9iF0QZh1yLudlH4-3" value="" style="endArrow=open;endSize=12;dashed=1;html=1;" parent="RhU2ml9dWSXJQ6e1RCNh-1" edge="1">
                    <mxGeometry width="160" relative="1" as="geometry">
                        <mxPoint x="730" y="370" as="sourcePoint"/>
                        <mxPoint x="730" y="520" as="targetPoint"/>
                        <Array as="points">
                            <mxPoint x="730" y="370"/>
                        </Array>
                    </mxGeometry>
                </mxCell>
                <mxCell id="dc5PC9iF0QZh1yLudlH4-4" value="" style="endArrow=open;endSize=12;dashed=1;html=1;entryX=0;entryY=0;entryDx=0;entryDy=0;" parent="RhU2ml9dWSXJQ6e1RCNh-1" target="IoegstEgRIe-HwTLqFYB-0" edge="1">
                    <mxGeometry width="160" relative="1" as="geometry">
                        <mxPoint x="390" y="380.12000000000006" as="sourcePoint"/>
                        <mxPoint x="569.04" y="380.0019999999999" as="targetPoint"/>
                    </mxGeometry>
                </mxCell>
                <mxCell id="SeJeW0eMxc966VmzMao2-0" value="LoginForm" style="swimlane;fontStyle=0;childLayout=stackLayout;horizontal=1;startSize=26;fillColor=none;horizontalStack=0;resizeParent=1;resizeParentMax=0;resizeLast=0;collapsible=1;marginBottom=0;" parent="RhU2ml9dWSXJQ6e1RCNh-1" vertex="1">
                    <mxGeometry x="210" y="60" width="180" height="78" as="geometry">
                        <mxRectangle x="510" y="450" width="60" height="26" as="alternateBounds"/>
                    </mxGeometry>
                </mxCell>
                <mxCell id="SeJeW0eMxc966VmzMao2-1" value="- emailAddress :  String" style="text;strokeColor=none;fillColor=none;align=left;verticalAlign=top;spacingLeft=4;spacingRight=4;overflow=hidden;rotatable=0;points=[[0,0.5],[1,0.5]];portConstraint=eastwest;" parent="SeJeW0eMxc966VmzMao2-0" vertex="1">
                    <mxGeometry y="26" width="180" height="26" as="geometry"/>
                </mxCell>
                <mxCell id="SeJeW0eMxc966VmzMao2-2" value="- password : String" style="text;strokeColor=none;fillColor=none;align=left;verticalAlign=top;spacingLeft=4;spacingRight=4;overflow=hidden;rotatable=0;points=[[0,0.5],[1,0.5]];portConstraint=eastwest;" parent="SeJeW0eMxc966VmzMao2-0" vertex="1">
                    <mxGeometry y="52" width="180" height="26" as="geometry"/>
                </mxCell>
                <mxCell id="D_YO640qixviMCWuvCQe-0" value="" style="endArrow=open;endSize=12;dashed=1;html=1;exitX=0.5;exitY=0;exitDx=0;exitDy=0;" parent="RhU2ml9dWSXJQ6e1RCNh-1" edge="1">
                    <mxGeometry width="160" relative="1" as="geometry">
                        <mxPoint x="277.84000000000003" y="267.97" as="sourcePoint"/>
                        <mxPoint x="282" y="140" as="targetPoint"/>
                    </mxGeometry>
                </mxCell>
                <mxCell id="D_YO640qixviMCWuvCQe-2" value="logout() : ログインページにフォワードするだけ" style="text;html=1;strokeColor=none;fillColor=none;align=center;verticalAlign=middle;whiteSpace=wrap;rounded=0;" parent="RhU2ml9dWSXJQ6e1RCNh-1" vertex="1">
                    <mxGeometry x="70" y="410" width="280" height="30" as="geometry"/>
                </mxCell>
            </root>
        </mxGraphModel>
    </diagram>
    <diagram id="xt_urDWp9s64T9J7MWBX" name="4-1商品の詳細">
        <mxGraphModel dx="1852" dy="719" grid="1" gridSize="10" guides="1" tooltips="1" connect="1" arrows="1" fold="1" page="1" pageScale="1" pageWidth="827" pageHeight="1169" background="none" math="0" shadow="0">
            <root>
                <mxCell id="dEr9iYdrpvuZ_YxTH9ih-0"/>
                <mxCell id="dEr9iYdrpvuZ_YxTH9ih-1" parent="dEr9iYdrpvuZ_YxTH9ih-0"/>
                <mxCell id="7mqZ3tZVfqq3px3tau1_-0" style="edgeStyle=none;html=1;entryX=0.508;entryY=-0.064;entryDx=0;entryDy=0;entryPerimeter=0;" edge="1" parent="dEr9iYdrpvuZ_YxTH9ih-1" source="rB1no7f_z6pyo4mZh0Gv-7" target="yE5CBeF5cxXHMefs_Ine-1">
                    <mxGeometry relative="1" as="geometry"/>
                </mxCell>
                <mxCell id="rB1no7f_z6pyo4mZh0Gv-7" value="" style="shape=table;startSize=0;container=1;collapsible=0;childLayout=tableLayout;strokeWidth=2;fillColor=#f5f5f5;fontColor=#FF0000;strokeColor=#666666;" parent="dEr9iYdrpvuZ_YxTH9ih-1" vertex="1">
                    <mxGeometry x="190" y="100" width="200" height="90" as="geometry"/>
                </mxCell>
                <mxCell id="rB1no7f_z6pyo4mZh0Gv-8" value="" style="shape=partialRectangle;collapsible=0;dropTarget=0;pointerEvents=0;fillColor=none;top=0;left=0;bottom=0;right=0;points=[[0,0.5],[1,0.5]];portConstraint=eastwest;strokeWidth=2;" parent="rB1no7f_z6pyo4mZh0Gv-7" vertex="1">
                    <mxGeometry width="200" height="30" as="geometry"/>
                </mxCell>
                <mxCell id="rB1no7f_z6pyo4mZh0Gv-9" value="ItemDetailForm" style="shape=partialRectangle;html=1;whiteSpace=wrap;connectable=0;overflow=hidden;fillColor=none;top=0;left=0;bottom=0;right=0;pointerEvents=1;strokeWidth=2;fontColor=#000000;" parent="rB1no7f_z6pyo4mZh0Gv-8" vertex="1">
                    <mxGeometry width="200" height="30" as="geometry">
                        <mxRectangle width="200" height="30" as="alternateBounds"/>
                    </mxGeometry>
                </mxCell>
                <mxCell id="rB1no7f_z6pyo4mZh0Gv-10" value="" style="shape=partialRectangle;collapsible=0;dropTarget=0;pointerEvents=0;fillColor=none;top=0;left=0;bottom=0;right=0;points=[[0,0.5],[1,0.5]];portConstraint=eastwest;strokeWidth=2;" parent="rB1no7f_z6pyo4mZh0Gv-7" vertex="1">
                    <mxGeometry y="30" width="200" height="60" as="geometry"/>
                </mxCell>
                <mxCell id="rB1no7f_z6pyo4mZh0Gv-11" value="- ItemId&amp;nbsp; String&lt;br&gt;" style="shape=partialRectangle;html=1;whiteSpace=wrap;connectable=0;overflow=hidden;fillColor=#f5f5f5;top=0;left=0;bottom=0;right=0;pointerEvents=1;strokeWidth=2;fontColor=#333333;strokeColor=#666666;" parent="rB1no7f_z6pyo4mZh0Gv-10" vertex="1">
                    <mxGeometry width="200" height="60" as="geometry">
                        <mxRectangle width="200" height="60" as="alternateBounds"/>
                    </mxGeometry>
                </mxCell>
                <mxCell id="OmvfOMFris0rhCCvNSYZ-4" style="edgeStyle=none;html=1;entryX=-0.002;entryY=0.237;entryDx=0;entryDy=0;entryPerimeter=0;fontColor=#000000;" parent="dEr9iYdrpvuZ_YxTH9ih-1" target="0mx9YTTbv-5bgZqGaCHf-18" edge="1">
                    <mxGeometry relative="1" as="geometry">
                        <mxPoint x="344.6031074939224" y="360" as="sourcePoint"/>
                    </mxGeometry>
                </mxCell>
                <mxCell id="0mx9YTTbv-5bgZqGaCHf-15" value="" style="shape=table;startSize=0;container=1;collapsible=0;childLayout=tableLayout;strokeWidth=2;fillColor=#f5f5f5;fontColor=#FF0000;strokeColor=#666666;" parent="dEr9iYdrpvuZ_YxTH9ih-1" vertex="1">
                    <mxGeometry x="520" y="460" width="200" height="90" as="geometry"/>
                </mxCell>
                <mxCell id="0mx9YTTbv-5bgZqGaCHf-16" value="" style="shape=partialRectangle;collapsible=0;dropTarget=0;pointerEvents=0;fillColor=none;top=0;left=0;bottom=0;right=0;points=[[0,0.5],[1,0.5]];portConstraint=eastwest;strokeWidth=2;" parent="0mx9YTTbv-5bgZqGaCHf-15" vertex="1">
                    <mxGeometry width="200" height="30" as="geometry"/>
                </mxCell>
                <mxCell id="0mx9YTTbv-5bgZqGaCHf-17" value="Item" style="shape=partialRectangle;html=1;whiteSpace=wrap;connectable=0;overflow=hidden;fillColor=none;top=0;left=0;bottom=0;right=0;pointerEvents=1;strokeWidth=2;fontColor=#000000;" parent="0mx9YTTbv-5bgZqGaCHf-16" vertex="1">
                    <mxGeometry width="200" height="30" as="geometry">
                        <mxRectangle width="200" height="30" as="alternateBounds"/>
                    </mxGeometry>
                </mxCell>
                <mxCell id="0mx9YTTbv-5bgZqGaCHf-18" value="" style="shape=partialRectangle;collapsible=0;dropTarget=0;pointerEvents=0;fillColor=none;top=0;left=0;bottom=0;right=0;points=[[0,0.5],[1,0.5]];portConstraint=eastwest;strokeWidth=2;" parent="0mx9YTTbv-5bgZqGaCHf-15" vertex="1">
                    <mxGeometry y="30" width="200" height="60" as="geometry"/>
                </mxCell>
                <mxCell id="0mx9YTTbv-5bgZqGaCHf-19" value="- id : Integer&lt;br&gt;-name : String&lt;br&gt;-description : String&lt;br&gt;-&amp;nbsp;" style="shape=partialRectangle;html=1;whiteSpace=wrap;connectable=0;overflow=hidden;fillColor=#f5f5f5;top=0;left=0;bottom=0;right=0;pointerEvents=1;strokeWidth=2;fontColor=#333333;strokeColor=#666666;" parent="0mx9YTTbv-5bgZqGaCHf-18" vertex="1">
                    <mxGeometry width="200" height="60" as="geometry">
                        <mxRectangle width="200" height="60" as="alternateBounds"/>
                    </mxGeometry>
                </mxCell>
                <mxCell id="15bQpndz9zu3DeV8rEoH-1" value="" style="shape=table;startSize=0;container=1;collapsible=0;childLayout=tableLayout;labelBackgroundColor=#FFFFFF;fontColor=#333333;strokeWidth=2;fillColor=#f5f5f5;strokeColor=#666666;" parent="dEr9iYdrpvuZ_YxTH9ih-1" vertex="1">
                    <mxGeometry x="-30" y="220" width="130" height="88" as="geometry"/>
                </mxCell>
                <mxCell id="15bQpndz9zu3DeV8rEoH-2" value="" style="shape=partialRectangle;collapsible=0;dropTarget=0;pointerEvents=0;fillColor=none;top=0;left=0;bottom=0;right=0;points=[[0,0.5],[1,0.5]];portConstraint=eastwest;labelBackgroundColor=#FFFFFF;fontColor=#000000;strokeWidth=2;" parent="15bQpndz9zu3DeV8rEoH-1" vertex="1">
                    <mxGeometry width="130" height="60" as="geometry"/>
                </mxCell>
                <mxCell id="15bQpndz9zu3DeV8rEoH-3" value="top.html" style="shape=partialRectangle;html=1;whiteSpace=wrap;connectable=0;overflow=hidden;fillColor=none;top=0;left=0;bottom=0;right=0;pointerEvents=1;labelBackgroundColor=#FFFFFF;fontColor=#000000;strokeWidth=2;" parent="15bQpndz9zu3DeV8rEoH-2" vertex="1">
                    <mxGeometry width="130" height="60" as="geometry">
                        <mxRectangle width="130" height="60" as="alternateBounds"/>
                    </mxGeometry>
                </mxCell>
                <mxCell id="15bQpndz9zu3DeV8rEoH-4" value="" style="shape=partialRectangle;collapsible=0;dropTarget=0;pointerEvents=0;fillColor=none;top=0;left=0;bottom=0;right=0;points=[[0,0.5],[1,0.5]];portConstraint=eastwest;labelBackgroundColor=#FFFFFF;fontColor=#000000;strokeWidth=2;" parent="15bQpndz9zu3DeV8rEoH-1" vertex="1">
                    <mxGeometry y="60" width="130" height="28" as="geometry"/>
                </mxCell>
                <mxCell id="15bQpndz9zu3DeV8rEoH-5" value="" style="shape=partialRectangle;html=1;whiteSpace=wrap;connectable=0;overflow=hidden;fillColor=none;top=0;left=0;bottom=0;right=0;pointerEvents=1;labelBackgroundColor=#FFFFFF;fontColor=#000000;strokeWidth=2;" parent="15bQpndz9zu3DeV8rEoH-4" vertex="1">
                    <mxGeometry width="130" height="28" as="geometry">
                        <mxRectangle width="130" height="28" as="alternateBounds"/>
                    </mxGeometry>
                </mxCell>
                <mxCell id="15bQpndz9zu3DeV8rEoH-6" value="request" style="edgeStyle=none;html=1;entryX=-0.023;entryY=0.889;entryDx=0;entryDy=0;entryPerimeter=0;fontColor=#FFFFFF;" parent="dEr9iYdrpvuZ_YxTH9ih-1" source="15bQpndz9zu3DeV8rEoH-2" target="yE5CBeF5cxXHMefs_Ine-1" edge="1">
                    <mxGeometry relative="1" as="geometry">
                        <mxPoint x="188.5999999999999" y="304.98" as="targetPoint"/>
                    </mxGeometry>
                </mxCell>
                <mxCell id="yE5CBeF5cxXHMefs_Ine-0" value="" style="shape=table;startSize=0;container=1;collapsible=0;childLayout=tableLayout;labelBackgroundColor=#FFFFFF;fontColor=#000000;strokeWidth=2;align=left;fillColor=#f5f5f5;strokeColor=#666666;" vertex="1" parent="dEr9iYdrpvuZ_YxTH9ih-1">
                    <mxGeometry x="180" y="280" width="220" height="140" as="geometry"/>
                </mxCell>
                <mxCell id="yE5CBeF5cxXHMefs_Ine-1" value="" style="shape=partialRectangle;collapsible=0;dropTarget=0;pointerEvents=0;fillColor=none;top=0;left=0;bottom=0;right=0;points=[[0,0.5],[1,0.5]];portConstraint=eastwest;labelBackgroundColor=#FFFFFF;fontColor=#000000;strokeWidth=2;" vertex="1" parent="yE5CBeF5cxXHMefs_Ine-0">
                    <mxGeometry width="220" height="47" as="geometry"/>
                </mxCell>
                <mxCell id="yE5CBeF5cxXHMefs_Ine-2" value="&lt;font&gt;ItemDetailController&lt;/font&gt;" style="shape=partialRectangle;html=1;whiteSpace=wrap;connectable=0;overflow=hidden;fillColor=none;top=0;left=0;bottom=0;right=0;pointerEvents=1;labelBackgroundColor=#FFFFFF;fontColor=#000000;strokeWidth=2;" vertex="1" parent="yE5CBeF5cxXHMefs_Ine-1">
                    <mxGeometry width="220" height="47" as="geometry">
                        <mxRectangle width="220" height="47" as="alternateBounds"/>
                    </mxGeometry>
                </mxCell>
                <mxCell id="yE5CBeF5cxXHMefs_Ine-3" value="" style="shape=partialRectangle;collapsible=0;dropTarget=0;pointerEvents=0;fillColor=none;top=0;left=0;bottom=0;right=0;points=[[0,0.5],[1,0.5]];portConstraint=eastwest;labelBackgroundColor=#FFFFFF;fontColor=#000000;strokeWidth=2;" vertex="1" parent="yE5CBeF5cxXHMefs_Ine-0">
                    <mxGeometry y="47" width="220" height="46" as="geometry"/>
                </mxCell>
                <mxCell id="yE5CBeF5cxXHMefs_Ine-4" value="&amp;nbsp; &amp;nbsp; &amp;nbsp;- ItemDetailService itemDetailService" style="shape=partialRectangle;html=1;whiteSpace=wrap;connectable=0;overflow=hidden;fillColor=none;top=0;left=0;bottom=0;right=0;pointerEvents=1;labelBackgroundColor=#FFFFFF;fontColor=#000000;strokeWidth=2;align=left;" vertex="1" parent="yE5CBeF5cxXHMefs_Ine-3">
                    <mxGeometry width="220" height="46" as="geometry">
                        <mxRectangle width="220" height="46" as="alternateBounds"/>
                    </mxGeometry>
                </mxCell>
                <mxCell id="yE5CBeF5cxXHMefs_Ine-5" value="" style="shape=partialRectangle;collapsible=0;dropTarget=0;pointerEvents=0;fillColor=none;top=0;left=0;bottom=0;right=0;points=[[0,0.5],[1,0.5]];portConstraint=eastwest;labelBackgroundColor=#FFFFFF;fontColor=#000000;strokeWidth=2;" vertex="1" parent="yE5CBeF5cxXHMefs_Ine-0">
                    <mxGeometry y="93" width="220" height="47" as="geometry"/>
                </mxCell>
                <mxCell id="yE5CBeF5cxXHMefs_Ine-6" value="+ findItemById(ItemId : int) : Item" style="shape=partialRectangle;html=1;whiteSpace=wrap;connectable=0;overflow=hidden;fillColor=none;top=0;left=0;bottom=0;right=0;pointerEvents=1;labelBackgroundColor=#FFFFFF;fontColor=#000000;strokeWidth=2;" vertex="1" parent="yE5CBeF5cxXHMefs_Ine-5">
                    <mxGeometry width="220" height="47" as="geometry">
                        <mxRectangle width="220" height="47" as="alternateBounds"/>
                    </mxGeometry>
                </mxCell>
                <mxCell id="yE5CBeF5cxXHMefs_Ine-7" style="edgeStyle=none;html=1;entryX=0;entryY=0.5;entryDx=0;entryDy=0;" edge="1" parent="dEr9iYdrpvuZ_YxTH9ih-1" source="yE5CBeF5cxXHMefs_Ine-3">
                    <mxGeometry relative="1" as="geometry">
                        <mxPoint x="500" y="340" as="targetPoint"/>
                    </mxGeometry>
                </mxCell>
                <mxCell id="yE5CBeF5cxXHMefs_Ine-9" value="" style="shape=table;startSize=0;container=1;collapsible=0;childLayout=tableLayout;labelBackgroundColor=#FFFFFF;fontColor=#000000;strokeWidth=2;align=left;fillColor=#f5f5f5;strokeColor=#666666;" vertex="1" parent="dEr9iYdrpvuZ_YxTH9ih-1">
                    <mxGeometry x="500" y="280" width="240" height="150" as="geometry"/>
                </mxCell>
                <mxCell id="yE5CBeF5cxXHMefs_Ine-10" value="" style="shape=partialRectangle;collapsible=0;dropTarget=0;pointerEvents=0;fillColor=none;top=0;left=0;bottom=0;right=0;points=[[0,0.5],[1,0.5]];portConstraint=eastwest;labelBackgroundColor=#FFFFFF;fontColor=#000000;strokeWidth=2;" vertex="1" parent="yE5CBeF5cxXHMefs_Ine-9">
                    <mxGeometry width="240" height="50" as="geometry"/>
                </mxCell>
                <mxCell id="yE5CBeF5cxXHMefs_Ine-11" value="&lt;font&gt;ItemDetailService&lt;/font&gt;" style="shape=partialRectangle;html=1;whiteSpace=wrap;connectable=0;overflow=hidden;fillColor=none;top=0;left=0;bottom=0;right=0;pointerEvents=1;labelBackgroundColor=#FFFFFF;fontColor=#000000;strokeWidth=2;" vertex="1" parent="yE5CBeF5cxXHMefs_Ine-10">
                    <mxGeometry width="240" height="50" as="geometry">
                        <mxRectangle width="240" height="50" as="alternateBounds"/>
                    </mxGeometry>
                </mxCell>
                <mxCell id="yE5CBeF5cxXHMefs_Ine-12" value="" style="shape=partialRectangle;collapsible=0;dropTarget=0;pointerEvents=0;fillColor=none;top=0;left=0;bottom=0;right=0;points=[[0,0.5],[1,0.5]];portConstraint=eastwest;labelBackgroundColor=#FFFFFF;fontColor=#000000;strokeWidth=2;" vertex="1" parent="yE5CBeF5cxXHMefs_Ine-9">
                    <mxGeometry y="50" width="240" height="50" as="geometry"/>
                </mxCell>
                <mxCell id="yE5CBeF5cxXHMefs_Ine-13" value="&amp;nbsp; &amp;nbsp; &amp;nbsp;- ItemDetailRepository itemDetailRepository" style="shape=partialRectangle;html=1;whiteSpace=wrap;connectable=0;overflow=hidden;fillColor=none;top=0;left=0;bottom=0;right=0;pointerEvents=1;labelBackgroundColor=#FFFFFF;fontColor=#000000;strokeWidth=2;align=left;" vertex="1" parent="yE5CBeF5cxXHMefs_Ine-12">
                    <mxGeometry width="240" height="50" as="geometry">
                        <mxRectangle width="240" height="50" as="alternateBounds"/>
                    </mxGeometry>
                </mxCell>
                <mxCell id="yE5CBeF5cxXHMefs_Ine-14" value="" style="shape=partialRectangle;collapsible=0;dropTarget=0;pointerEvents=0;fillColor=none;top=0;left=0;bottom=0;right=0;points=[[0,0.5],[1,0.5]];portConstraint=eastwest;labelBackgroundColor=#FFFFFF;fontColor=#000000;strokeWidth=2;" vertex="1" parent="yE5CBeF5cxXHMefs_Ine-9">
                    <mxGeometry y="100" width="240" height="50" as="geometry"/>
                </mxCell>
                <mxCell id="yE5CBeF5cxXHMefs_Ine-15" value="+ findItemById(ItemId : int) : Item" style="shape=partialRectangle;html=1;whiteSpace=wrap;connectable=0;overflow=hidden;fillColor=none;top=0;left=0;bottom=0;right=0;pointerEvents=1;labelBackgroundColor=#FFFFFF;fontColor=#000000;strokeWidth=2;" vertex="1" parent="yE5CBeF5cxXHMefs_Ine-14">
                    <mxGeometry width="240" height="50" as="geometry">
                        <mxRectangle width="240" height="50" as="alternateBounds"/>
                    </mxGeometry>
                </mxCell>
                <mxCell id="yE5CBeF5cxXHMefs_Ine-16" value="" style="shape=table;startSize=0;container=1;collapsible=0;childLayout=tableLayout;labelBackgroundColor=#FFFFFF;fontColor=#000000;strokeWidth=2;align=left;fillColor=#f5f5f5;strokeColor=#666666;" vertex="1" parent="dEr9iYdrpvuZ_YxTH9ih-1">
                    <mxGeometry x="790" y="280" width="220" height="140" as="geometry"/>
                </mxCell>
                <mxCell id="yE5CBeF5cxXHMefs_Ine-17" value="" style="shape=partialRectangle;collapsible=0;dropTarget=0;pointerEvents=0;fillColor=none;top=0;left=0;bottom=0;right=0;points=[[0,0.5],[1,0.5]];portConstraint=eastwest;labelBackgroundColor=#FFFFFF;fontColor=#000000;strokeWidth=2;" vertex="1" parent="yE5CBeF5cxXHMefs_Ine-16">
                    <mxGeometry width="220" height="47" as="geometry"/>
                </mxCell>
                <mxCell id="yE5CBeF5cxXHMefs_Ine-18" value="&lt;font&gt;ItemDetailRepository&lt;/font&gt;" style="shape=partialRectangle;html=1;whiteSpace=wrap;connectable=0;overflow=hidden;fillColor=none;top=0;left=0;bottom=0;right=0;pointerEvents=1;labelBackgroundColor=#FFFFFF;fontColor=#000000;strokeWidth=2;" vertex="1" parent="yE5CBeF5cxXHMefs_Ine-17">
                    <mxGeometry width="220" height="47" as="geometry">
                        <mxRectangle width="220" height="47" as="alternateBounds"/>
                    </mxGeometry>
                </mxCell>
                <mxCell id="yE5CBeF5cxXHMefs_Ine-19" value="" style="shape=partialRectangle;collapsible=0;dropTarget=0;pointerEvents=0;fillColor=none;top=0;left=0;bottom=0;right=0;points=[[0,0.5],[1,0.5]];portConstraint=eastwest;labelBackgroundColor=#FFFFFF;fontColor=#000000;strokeWidth=2;" vertex="1" parent="yE5CBeF5cxXHMefs_Ine-16">
                    <mxGeometry y="47" width="220" height="46" as="geometry"/>
                </mxCell>
                <mxCell id="yE5CBeF5cxXHMefs_Ine-20" value="- jdbcTemplate: NamedJdbcTemplate" style="shape=partialRectangle;html=1;whiteSpace=wrap;connectable=0;overflow=hidden;fillColor=none;top=0;left=0;bottom=0;right=0;pointerEvents=1;labelBackgroundColor=#FFFFFF;fontColor=#000000;strokeWidth=2;align=left;" vertex="1" parent="yE5CBeF5cxXHMefs_Ine-19">
                    <mxGeometry width="220" height="46" as="geometry">
                        <mxRectangle width="220" height="46" as="alternateBounds"/>
                    </mxGeometry>
                </mxCell>
                <mxCell id="yE5CBeF5cxXHMefs_Ine-21" value="" style="shape=partialRectangle;collapsible=0;dropTarget=0;pointerEvents=0;fillColor=none;top=0;left=0;bottom=0;right=0;points=[[0,0.5],[1,0.5]];portConstraint=eastwest;labelBackgroundColor=#FFFFFF;fontColor=#000000;strokeWidth=2;" vertex="1" parent="yE5CBeF5cxXHMefs_Ine-16">
                    <mxGeometry y="93" width="220" height="47" as="geometry"/>
                </mxCell>
                <mxCell id="yE5CBeF5cxXHMefs_Ine-22" value="+ findItemById(ItemId : int) : Item" style="shape=partialRectangle;html=1;whiteSpace=wrap;connectable=0;overflow=hidden;fillColor=none;top=0;left=0;bottom=0;right=0;pointerEvents=1;labelBackgroundColor=#FFFFFF;fontColor=#000000;strokeWidth=2;" vertex="1" parent="yE5CBeF5cxXHMefs_Ine-21">
                    <mxGeometry width="220" height="47" as="geometry">
                        <mxRectangle width="220" height="47" as="alternateBounds"/>
                    </mxGeometry>
                </mxCell>
            </root>
        </mxGraphModel>
    </diagram>
    <diagram id="nWySdwL_BwsOb6LoK-wE" name="5.1カートへ追加・削除">
        <mxGraphModel dx="2194" dy="958" grid="1" gridSize="10" guides="1" tooltips="1" connect="1" arrows="1" fold="1" page="1" pageScale="1" pageWidth="827" pageHeight="1169" math="0" shadow="0">
            <root>
                <mxCell id="6BBa9-7Ipqi8T7qrks2X-0"/>
                <mxCell id="6BBa9-7Ipqi8T7qrks2X-1" parent="6BBa9-7Ipqi8T7qrks2X-0"/>
                <mxCell id="7q_oNH2DxjgzWiPnT3Ee-13" style="edgeStyle=none;html=1;entryX=0.557;entryY=0.04;entryDx=0;entryDy=0;entryPerimeter=0;" edge="1" parent="6BBa9-7Ipqi8T7qrks2X-1" source="V6TlqGYfc1HolqA-QeUE-24" target="7q_oNH2DxjgzWiPnT3Ee-9">
                    <mxGeometry relative="1" as="geometry"/>
                </mxCell>
                <mxCell id="V6TlqGYfc1HolqA-QeUE-24" value="" style="shape=table;startSize=0;container=1;collapsible=0;childLayout=tableLayout;strokeWidth=2;fillColor=#f5f5f5;fontColor=#000000;strokeColor=#666666;" parent="6BBa9-7Ipqi8T7qrks2X-1" vertex="1">
                    <mxGeometry x="520" y="480" width="200" height="140" as="geometry"/>
                </mxCell>
                <mxCell id="V6TlqGYfc1HolqA-QeUE-25" value="" style="shape=partialRectangle;collapsible=0;dropTarget=0;pointerEvents=0;fillColor=none;top=0;left=0;bottom=0;right=0;points=[[0,0.5],[1,0.5]];portConstraint=eastwest;strokeWidth=2;fontColor=#000000;" parent="V6TlqGYfc1HolqA-QeUE-24" vertex="1">
                    <mxGeometry width="200" height="46" as="geometry"/>
                </mxCell>
                <mxCell id="V6TlqGYfc1HolqA-QeUE-26" value="OrderItem&lt;br&gt;" style="shape=partialRectangle;html=1;whiteSpace=wrap;connectable=0;overflow=hidden;fillColor=none;top=0;left=0;bottom=0;right=0;pointerEvents=1;strokeWidth=2;fontColor=#000000;" parent="V6TlqGYfc1HolqA-QeUE-25" vertex="1">
                    <mxGeometry width="200" height="46" as="geometry">
                        <mxRectangle width="200" height="46" as="alternateBounds"/>
                    </mxGeometry>
                </mxCell>
                <mxCell id="V6TlqGYfc1HolqA-QeUE-27" value="" style="shape=partialRectangle;collapsible=0;dropTarget=0;pointerEvents=0;fillColor=none;top=0;left=0;bottom=0;right=0;points=[[0,0.5],[1,0.5]];portConstraint=eastwest;strokeWidth=2;fontColor=#000000;" parent="V6TlqGYfc1HolqA-QeUE-24" vertex="1">
                    <mxGeometry y="46" width="200" height="94" as="geometry"/>
                </mxCell>
                <mxCell id="V6TlqGYfc1HolqA-QeUE-28" value="- id Integer&lt;br&gt;- ItemID Integer&lt;br&gt;- orderId Integer&lt;br&gt;-quantity Integer&lt;br&gt;- size Character&lt;br&gt;- oderToppingList : List" style="shape=partialRectangle;html=1;whiteSpace=wrap;connectable=0;overflow=hidden;fillColor=#f5f5f5;top=0;left=0;bottom=0;right=0;pointerEvents=1;strokeWidth=2;fontColor=#000000;strokeColor=#666666;" parent="V6TlqGYfc1HolqA-QeUE-27" vertex="1">
                    <mxGeometry width="200" height="94" as="geometry">
                        <mxRectangle width="200" height="94" as="alternateBounds"/>
                    </mxGeometry>
                </mxCell>
                <mxCell id="V6TlqGYfc1HolqA-QeUE-29" style="edgeStyle=none;html=1;entryX=0;entryY=0.5;entryDx=0;entryDy=0;fontColor=#000000;exitX=1;exitY=0.5;exitDx=0;exitDy=0;" parent="6BBa9-7Ipqi8T7qrks2X-1" target="C9pM5WW43GBpZacUJWnM-3" edge="1" source="Yjv-sclPkgttAWHXHgat-3">
                    <mxGeometry relative="1" as="geometry">
                        <mxPoint x="410" y="345.7016806722688" as="sourcePoint"/>
                        <mxPoint x="500.4000000000001" y="331.41999999999996" as="targetPoint"/>
                    </mxGeometry>
                </mxCell>
                <mxCell id="V6TlqGYfc1HolqA-QeUE-30" value="" style="shape=table;startSize=0;container=1;collapsible=0;childLayout=tableLayout;labelBackgroundColor=#FFFFFF;fontColor=#000000;strokeWidth=2;fillColor=#f5f5f5;strokeColor=#666666;" parent="6BBa9-7Ipqi8T7qrks2X-1" vertex="1">
                    <mxGeometry x="-160" y="210" width="130" height="88" as="geometry"/>
                </mxCell>
                <mxCell id="V6TlqGYfc1HolqA-QeUE-31" value="" style="shape=partialRectangle;collapsible=0;dropTarget=0;pointerEvents=0;fillColor=none;top=0;left=0;bottom=0;right=0;points=[[0,0.5],[1,0.5]];portConstraint=eastwest;labelBackgroundColor=#FFFFFF;fontColor=#000000;strokeWidth=2;" parent="V6TlqGYfc1HolqA-QeUE-30" vertex="1">
                    <mxGeometry width="130" height="60" as="geometry"/>
                </mxCell>
                <mxCell id="V6TlqGYfc1HolqA-QeUE-32" value="+ top.html&lt;br&gt;" style="shape=partialRectangle;html=1;whiteSpace=wrap;connectable=0;overflow=hidden;fillColor=none;top=0;left=0;bottom=0;right=0;pointerEvents=1;labelBackgroundColor=#FFFFFF;fontColor=#000000;strokeWidth=2;" parent="V6TlqGYfc1HolqA-QeUE-31" vertex="1">
                    <mxGeometry width="130" height="60" as="geometry">
                        <mxRectangle width="130" height="60" as="alternateBounds"/>
                    </mxGeometry>
                </mxCell>
                <mxCell id="V6TlqGYfc1HolqA-QeUE-33" value="" style="shape=partialRectangle;collapsible=0;dropTarget=0;pointerEvents=0;fillColor=none;top=0;left=0;bottom=0;right=0;points=[[0,0.5],[1,0.5]];portConstraint=eastwest;labelBackgroundColor=#FFFFFF;fontColor=#000000;strokeWidth=2;" parent="V6TlqGYfc1HolqA-QeUE-30" vertex="1">
                    <mxGeometry y="60" width="130" height="28" as="geometry"/>
                </mxCell>
                <mxCell id="V6TlqGYfc1HolqA-QeUE-34" value="" style="shape=partialRectangle;html=1;whiteSpace=wrap;connectable=0;overflow=hidden;fillColor=none;top=0;left=0;bottom=0;right=0;pointerEvents=1;labelBackgroundColor=#FFFFFF;fontColor=#000000;strokeWidth=2;" parent="V6TlqGYfc1HolqA-QeUE-33" vertex="1">
                    <mxGeometry width="130" height="28" as="geometry">
                        <mxRectangle width="130" height="28" as="alternateBounds"/>
                    </mxGeometry>
                </mxCell>
                <mxCell id="7q_oNH2DxjgzWiPnT3Ee-14" style="edgeStyle=none;html=1;entryX=-0.023;entryY=0.336;entryDx=0;entryDy=0;entryPerimeter=0;" edge="1" parent="6BBa9-7Ipqi8T7qrks2X-1" source="Yjv-sclPkgttAWHXHgat-2" target="7q_oNH2DxjgzWiPnT3Ee-11">
                    <mxGeometry relative="1" as="geometry"/>
                </mxCell>
                <mxCell id="Yjv-sclPkgttAWHXHgat-2" value="" style="shape=table;startSize=0;container=1;collapsible=0;childLayout=tableLayout;labelBackgroundColor=#FFFFFF;fontColor=#000000;strokeWidth=2;align=left;fillColor=#f5f5f5;strokeColor=#666666;" parent="6BBa9-7Ipqi8T7qrks2X-1" vertex="1">
                    <mxGeometry x="100" y="308" width="296" height="202" as="geometry"/>
                </mxCell>
                <mxCell id="Yjv-sclPkgttAWHXHgat-3" value="" style="shape=partialRectangle;collapsible=0;dropTarget=0;pointerEvents=0;fillColor=none;top=0;left=0;bottom=0;right=0;points=[[0,0.5],[1,0.5]];portConstraint=eastwest;labelBackgroundColor=#FFFFFF;fontColor=#000000;strokeWidth=2;" parent="Yjv-sclPkgttAWHXHgat-2" vertex="1">
                    <mxGeometry width="296" height="68" as="geometry"/>
                </mxCell>
                <mxCell id="Yjv-sclPkgttAWHXHgat-4" value="&lt;font&gt;OrderItemRestController&lt;/font&gt;" style="shape=partialRectangle;html=1;whiteSpace=wrap;connectable=0;overflow=hidden;fillColor=none;top=0;left=0;bottom=0;right=0;pointerEvents=1;labelBackgroundColor=#FFFFFF;fontColor=#000000;strokeWidth=2;" parent="Yjv-sclPkgttAWHXHgat-3" vertex="1">
                    <mxGeometry width="296" height="68" as="geometry">
                        <mxRectangle width="296" height="68" as="alternateBounds"/>
                    </mxGeometry>
                </mxCell>
                <mxCell id="Yjv-sclPkgttAWHXHgat-5" value="" style="shape=partialRectangle;collapsible=0;dropTarget=0;pointerEvents=0;fillColor=none;top=0;left=0;bottom=0;right=0;points=[[0,0.5],[1,0.5]];portConstraint=eastwest;labelBackgroundColor=#FFFFFF;fontColor=#000000;strokeWidth=2;" parent="Yjv-sclPkgttAWHXHgat-2" vertex="1">
                    <mxGeometry y="68" width="296" height="66" as="geometry"/>
                </mxCell>
                <mxCell id="Yjv-sclPkgttAWHXHgat-6" value="&amp;nbsp; &amp;nbsp; &amp;nbsp;-&amp;nbsp; orderService&amp;nbsp; OrderService&lt;br&gt;&lt;span style=&quot;white-space: pre&quot;&gt;&#9;&lt;/span&gt;&lt;br&gt;&lt;span&gt;&#9;&lt;/span&gt;" style="shape=partialRectangle;html=1;whiteSpace=wrap;connectable=0;overflow=hidden;fillColor=none;top=0;left=0;bottom=0;right=0;pointerEvents=1;labelBackgroundColor=#FFFFFF;fontColor=#000000;strokeWidth=2;align=left;" parent="Yjv-sclPkgttAWHXHgat-5" vertex="1">
                    <mxGeometry width="296" height="66" as="geometry">
                        <mxRectangle width="296" height="66" as="alternateBounds"/>
                    </mxGeometry>
                </mxCell>
                <mxCell id="Yjv-sclPkgttAWHXHgat-7" value="" style="shape=partialRectangle;collapsible=0;dropTarget=0;pointerEvents=0;fillColor=none;top=0;left=0;bottom=0;right=0;points=[[0,0.5],[1,0.5]];portConstraint=eastwest;labelBackgroundColor=#FFFFFF;fontColor=#000000;strokeWidth=2;" parent="Yjv-sclPkgttAWHXHgat-2" vertex="1">
                    <mxGeometry y="134" width="296" height="68" as="geometry"/>
                </mxCell>
                <mxCell id="Yjv-sclPkgttAWHXHgat-8" value="+ addToOrder(orderItemForm OrderItemForm ) Map&lt;br&gt;+ updateToOrder(orderItemForm OrderItemForm)&amp;nbsp; Map&lt;br&gt;+ deleteOrderItem ( orderItemForm OrderItemForm)" style="shape=partialRectangle;html=1;whiteSpace=wrap;connectable=0;overflow=hidden;fillColor=none;top=0;left=0;bottom=0;right=0;pointerEvents=1;labelBackgroundColor=#FFFFFF;fontColor=#000000;strokeWidth=2;" parent="Yjv-sclPkgttAWHXHgat-7" vertex="1">
                    <mxGeometry width="296" height="68" as="geometry">
                        <mxRectangle width="296" height="68" as="alternateBounds"/>
                    </mxGeometry>
                </mxCell>
                <mxCell id="C9pM5WW43GBpZacUJWnM-15" style="edgeStyle=none;html=1;entryX=0.009;entryY=0.127;entryDx=0;entryDy=0;entryPerimeter=0;" parent="6BBa9-7Ipqi8T7qrks2X-1" source="C9pM5WW43GBpZacUJWnM-0" target="C9pM5WW43GBpZacUJWnM-11" edge="1">
                    <mxGeometry relative="1" as="geometry"/>
                </mxCell>
                <mxCell id="7q_oNH2DxjgzWiPnT3Ee-15" style="edgeStyle=none;html=1;" edge="1" parent="6BBa9-7Ipqi8T7qrks2X-1" source="C9pM5WW43GBpZacUJWnM-0">
                    <mxGeometry relative="1" as="geometry">
                        <mxPoint x="600" y="470" as="targetPoint"/>
                    </mxGeometry>
                </mxCell>
                <mxCell id="6XclgAWNxpjjyoLy1fHY-1" style="edgeStyle=none;html=1;entryX=0;entryY=0.5;entryDx=0;entryDy=0;" edge="1" parent="6BBa9-7Ipqi8T7qrks2X-1" source="C9pM5WW43GBpZacUJWnM-0" target="7q_oNH2DxjgzWiPnT3Ee-19">
                    <mxGeometry relative="1" as="geometry"/>
                </mxCell>
                <mxCell id="PJVVyvPf7vu9DPtrSDhA-0" style="edgeStyle=none;html=1;entryX=1;entryY=0.5;entryDx=0;entryDy=0;curved=1;" edge="1" parent="6BBa9-7Ipqi8T7qrks2X-1" source="C9pM5WW43GBpZacUJWnM-0" target="7q_oNH2DxjgzWiPnT3Ee-11">
                    <mxGeometry relative="1" as="geometry">
                        <Array as="points">
                            <mxPoint x="840" y="550"/>
                        </Array>
                    </mxGeometry>
                </mxCell>
                <mxCell id="C9pM5WW43GBpZacUJWnM-0" value="" style="shape=table;startSize=0;container=1;collapsible=0;childLayout=tableLayout;labelBackgroundColor=#FFFFFF;fontColor=#000000;strokeWidth=2;align=left;fillColor=#f5f5f5;strokeColor=#666666;" parent="6BBa9-7Ipqi8T7qrks2X-1" vertex="1">
                    <mxGeometry x="480" y="130" width="240" height="300" as="geometry"/>
                </mxCell>
                <mxCell id="C9pM5WW43GBpZacUJWnM-1" value="" style="shape=partialRectangle;collapsible=0;dropTarget=0;pointerEvents=0;fillColor=none;top=0;left=0;bottom=0;right=0;points=[[0,0.5],[1,0.5]];portConstraint=eastwest;labelBackgroundColor=#FFFFFF;fontColor=#000000;strokeWidth=2;" parent="C9pM5WW43GBpZacUJWnM-0" vertex="1">
                    <mxGeometry width="240" height="101" as="geometry"/>
                </mxCell>
                <mxCell id="C9pM5WW43GBpZacUJWnM-2" value="OrderItemService" style="shape=partialRectangle;html=1;whiteSpace=wrap;connectable=0;overflow=hidden;fillColor=none;top=0;left=0;bottom=0;right=0;pointerEvents=1;labelBackgroundColor=#FFFFFF;fontColor=#000000;strokeWidth=2;" parent="C9pM5WW43GBpZacUJWnM-1" vertex="1">
                    <mxGeometry width="240" height="101" as="geometry">
                        <mxRectangle width="240" height="101" as="alternateBounds"/>
                    </mxGeometry>
                </mxCell>
                <mxCell id="C9pM5WW43GBpZacUJWnM-3" value="" style="shape=partialRectangle;collapsible=0;dropTarget=0;pointerEvents=0;fillColor=none;top=0;left=0;bottom=0;right=0;points=[[0,0.5],[1,0.5]];portConstraint=eastwest;labelBackgroundColor=#FFFFFF;fontColor=#000000;strokeWidth=2;" parent="C9pM5WW43GBpZacUJWnM-0" vertex="1">
                    <mxGeometry y="101" width="240" height="98" as="geometry"/>
                </mxCell>
                <mxCell id="C9pM5WW43GBpZacUJWnM-4" value="- OrderRepository orderRepository" style="shape=partialRectangle;html=1;whiteSpace=wrap;connectable=0;overflow=hidden;fillColor=none;top=0;left=0;bottom=0;right=0;pointerEvents=1;labelBackgroundColor=#FFFFFF;fontColor=#000000;strokeWidth=2;" parent="C9pM5WW43GBpZacUJWnM-3" vertex="1">
                    <mxGeometry width="240" height="98" as="geometry">
                        <mxRectangle width="240" height="98" as="alternateBounds"/>
                    </mxGeometry>
                </mxCell>
                <mxCell id="C9pM5WW43GBpZacUJWnM-5" value="" style="shape=partialRectangle;collapsible=0;dropTarget=0;pointerEvents=0;fillColor=none;top=0;left=0;bottom=0;right=0;points=[[0,0.5],[1,0.5]];portConstraint=eastwest;labelBackgroundColor=#FFFFFF;fontColor=#000000;strokeWidth=2;" parent="C9pM5WW43GBpZacUJWnM-0" vertex="1">
                    <mxGeometry y="199" width="240" height="101" as="geometry"/>
                </mxCell>
                <mxCell id="C9pM5WW43GBpZacUJWnM-6" value="+ addToOrder(OrderItem orderItem)&amp;nbsp; OrderItem&lt;br&gt;+ updateToOrder(orderItem OrderItem) OrderItem&lt;br&gt;+ deleteOrderItem(orderItemForm OrderItemForm)" style="shape=partialRectangle;html=1;whiteSpace=wrap;connectable=0;overflow=hidden;fillColor=none;top=0;left=0;bottom=0;right=0;pointerEvents=1;labelBackgroundColor=#FFFFFF;fontColor=#000000;strokeWidth=2;" parent="C9pM5WW43GBpZacUJWnM-5" vertex="1">
                    <mxGeometry width="240" height="101" as="geometry">
                        <mxRectangle width="240" height="101" as="alternateBounds"/>
                    </mxGeometry>
                </mxCell>
                <mxCell id="C9pM5WW43GBpZacUJWnM-8" value="" style="shape=table;startSize=0;container=1;collapsible=0;childLayout=tableLayout;labelBackgroundColor=#FFFFFF;fontColor=#000000;strokeWidth=2;align=left;fillColor=#f5f5f5;strokeColor=#666666;" parent="6BBa9-7Ipqi8T7qrks2X-1" vertex="1">
                    <mxGeometry x="790" y="270" width="280" height="160" as="geometry"/>
                </mxCell>
                <mxCell id="C9pM5WW43GBpZacUJWnM-9" value="" style="shape=partialRectangle;collapsible=0;dropTarget=0;pointerEvents=0;fillColor=none;top=0;left=0;bottom=0;right=0;points=[[0,0.5],[1,0.5]];portConstraint=eastwest;labelBackgroundColor=#FFFFFF;fontColor=#000000;strokeWidth=2;" parent="C9pM5WW43GBpZacUJWnM-8" vertex="1">
                    <mxGeometry width="280" height="49" as="geometry"/>
                </mxCell>
                <mxCell id="C9pM5WW43GBpZacUJWnM-10" value="&lt;font&gt;OrderItemRepository&lt;br&gt;&lt;/font&gt;" style="shape=partialRectangle;html=1;whiteSpace=wrap;connectable=0;overflow=hidden;fillColor=none;top=0;left=0;bottom=0;right=0;pointerEvents=1;labelBackgroundColor=#FFFFFF;fontColor=#000000;strokeWidth=2;" parent="C9pM5WW43GBpZacUJWnM-9" vertex="1">
                    <mxGeometry width="280" height="49" as="geometry">
                        <mxRectangle width="280" height="49" as="alternateBounds"/>
                    </mxGeometry>
                </mxCell>
                <mxCell id="C9pM5WW43GBpZacUJWnM-11" value="" style="shape=partialRectangle;collapsible=0;dropTarget=0;pointerEvents=0;fillColor=none;top=0;left=0;bottom=0;right=0;points=[[0,0.5],[1,0.5]];portConstraint=eastwest;labelBackgroundColor=#FFFFFF;fontColor=#000000;strokeWidth=2;" parent="C9pM5WW43GBpZacUJWnM-8" vertex="1">
                    <mxGeometry y="49" width="280" height="45" as="geometry"/>
                </mxCell>
                <mxCell id="C9pM5WW43GBpZacUJWnM-12" value="jdbcTemplate : NamedJdbcTemplate&amp;nbsp;" style="shape=partialRectangle;html=1;whiteSpace=wrap;connectable=0;overflow=hidden;fillColor=none;top=0;left=0;bottom=0;right=0;pointerEvents=1;labelBackgroundColor=#FFFFFF;fontColor=#000000;strokeWidth=2;" parent="C9pM5WW43GBpZacUJWnM-11" vertex="1">
                    <mxGeometry width="280" height="45" as="geometry">
                        <mxRectangle width="280" height="45" as="alternateBounds"/>
                    </mxGeometry>
                </mxCell>
                <mxCell id="C9pM5WW43GBpZacUJWnM-13" value="" style="shape=partialRectangle;collapsible=0;dropTarget=0;pointerEvents=0;fillColor=none;top=0;left=0;bottom=0;right=0;points=[[0,0.5],[1,0.5]];portConstraint=eastwest;labelBackgroundColor=#FFFFFF;fontColor=#000000;strokeWidth=2;" parent="C9pM5WW43GBpZacUJWnM-8" vertex="1">
                    <mxGeometry y="94" width="280" height="66" as="geometry"/>
                </mxCell>
                <mxCell id="C9pM5WW43GBpZacUJWnM-14" value="&lt;span style=&quot;color: rgb(0 , 0 , 0) ; font-family: &amp;#34;helvetica&amp;#34; ; font-size: 12px ; font-style: normal ; font-weight: 400 ; letter-spacing: normal ; text-indent: 0px ; text-transform: none ; word-spacing: 0px ; background-color: rgb(255 , 255 , 255) ; display: inline ; float: none&quot;&gt;+ insertOne( orderItem OrderItem) : Integer&lt;br&gt;+ updateOrderItem(orderItem OrderItem) Integer&lt;br&gt;+ deleteOrderItem(orderItem OrderItem)&lt;br&gt;&lt;/span&gt;" style="shape=partialRectangle;html=1;whiteSpace=wrap;connectable=0;overflow=hidden;fillColor=none;top=0;left=0;bottom=0;right=0;pointerEvents=1;labelBackgroundColor=#FFFFFF;fontColor=#000000;strokeWidth=2;align=left;" parent="C9pM5WW43GBpZacUJWnM-13" vertex="1">
                    <mxGeometry width="280" height="66" as="geometry">
                        <mxRectangle width="280" height="66" as="alternateBounds"/>
                    </mxGeometry>
                </mxCell>
                <mxCell id="Z8FzZklFBjkl1N5F8vAk-0" value="&lt;font color=&quot;#ffffff&quot;&gt;request&lt;/font&gt;" style="edgeStyle=none;html=1;entryX=-0.021;entryY=0.668;entryDx=0;entryDy=0;entryPerimeter=0;exitX=0.357;exitY=1.136;exitDx=0;exitDy=0;exitPerimeter=0;fontColor=#000000;" parent="6BBa9-7Ipqi8T7qrks2X-1" source="V6TlqGYfc1HolqA-QeUE-33" target="Yjv-sclPkgttAWHXHgat-3" edge="1">
                    <mxGeometry relative="1" as="geometry"/>
                </mxCell>
                <mxCell id="Z8FzZklFBjkl1N5F8vAk-1" style="edgeStyle=none;html=1;entryX=-0.025;entryY=0.237;entryDx=0;entryDy=0;entryPerimeter=0;" parent="6BBa9-7Ipqi8T7qrks2X-1" source="Yjv-sclPkgttAWHXHgat-7" target="V6TlqGYfc1HolqA-QeUE-27" edge="1">
                    <mxGeometry relative="1" as="geometry"/>
                </mxCell>
                <mxCell id="Z8FzZklFBjkl1N5F8vAk-2" style="edgeStyle=none;html=1;entryX=1.019;entryY=0.303;entryDx=0;entryDy=0;entryPerimeter=0;" parent="6BBa9-7Ipqi8T7qrks2X-1" source="C9pM5WW43GBpZacUJWnM-13" target="V6TlqGYfc1HolqA-QeUE-27" edge="1">
                    <mxGeometry relative="1" as="geometry"/>
                </mxCell>
                <mxCell id="7q_oNH2DxjgzWiPnT3Ee-7" value="" style="edgeStyle=none;html=1;entryX=0.653;entryY=-0.053;entryDx=0;entryDy=0;entryPerimeter=0;" edge="1" parent="6BBa9-7Ipqi8T7qrks2X-1" source="7q_oNH2DxjgzWiPnT3Ee-0" target="Yjv-sclPkgttAWHXHgat-3">
                    <mxGeometry relative="1" as="geometry">
                        <mxPoint x="304" y="280" as="targetPoint"/>
                    </mxGeometry>
                </mxCell>
                <mxCell id="7q_oNH2DxjgzWiPnT3Ee-0" value="" style="shape=table;startSize=0;container=1;collapsible=0;childLayout=tableLayout;labelBackgroundColor=#FFFFFF;fontColor=#000000;strokeWidth=2;align=left;fillColor=#f5f5f5;strokeColor=#666666;" vertex="1" parent="6BBa9-7Ipqi8T7qrks2X-1">
                    <mxGeometry x="194" y="90" width="220" height="140" as="geometry"/>
                </mxCell>
                <mxCell id="7q_oNH2DxjgzWiPnT3Ee-1" value="" style="shape=partialRectangle;collapsible=0;dropTarget=0;pointerEvents=0;fillColor=none;top=0;left=0;bottom=0;right=0;points=[[0,0.5],[1,0.5]];portConstraint=eastwest;labelBackgroundColor=#FFFFFF;fontColor=#000000;strokeWidth=2;" vertex="1" parent="7q_oNH2DxjgzWiPnT3Ee-0">
                    <mxGeometry width="220" height="47" as="geometry"/>
                </mxCell>
                <mxCell id="7q_oNH2DxjgzWiPnT3Ee-2" value="OrderItemForm" style="shape=partialRectangle;html=1;whiteSpace=wrap;connectable=0;overflow=hidden;fillColor=none;top=0;left=0;bottom=0;right=0;pointerEvents=1;labelBackgroundColor=#FFFFFF;fontColor=#000000;strokeWidth=2;" vertex="1" parent="7q_oNH2DxjgzWiPnT3Ee-1">
                    <mxGeometry width="220" height="47" as="geometry">
                        <mxRectangle width="220" height="47" as="alternateBounds"/>
                    </mxGeometry>
                </mxCell>
                <mxCell id="7q_oNH2DxjgzWiPnT3Ee-3" value="" style="shape=partialRectangle;collapsible=0;dropTarget=0;pointerEvents=0;fillColor=none;top=0;left=0;bottom=0;right=0;points=[[0,0.5],[1,0.5]];portConstraint=eastwest;labelBackgroundColor=#FFFFFF;fontColor=#000000;strokeWidth=2;" vertex="1" parent="7q_oNH2DxjgzWiPnT3Ee-0">
                    <mxGeometry y="47" width="220" height="73" as="geometry"/>
                </mxCell>
                <mxCell id="7q_oNH2DxjgzWiPnT3Ee-4" value="- orderId Integer&lt;br&gt;- itemId int&lt;br&gt;- size Character&lt;br&gt;- quantity : Integer&lt;br&gt;- toppingIdList : List&amp;lt;Integer&amp;gt;" style="shape=partialRectangle;html=1;whiteSpace=wrap;connectable=0;overflow=hidden;fillColor=none;top=0;left=0;bottom=0;right=0;pointerEvents=1;labelBackgroundColor=#FFFFFF;fontColor=#000000;strokeWidth=2;" vertex="1" parent="7q_oNH2DxjgzWiPnT3Ee-3">
                    <mxGeometry width="220" height="73" as="geometry">
                        <mxRectangle width="220" height="73" as="alternateBounds"/>
                    </mxGeometry>
                </mxCell>
                <mxCell id="7q_oNH2DxjgzWiPnT3Ee-5" value="" style="shape=partialRectangle;collapsible=0;dropTarget=0;pointerEvents=0;fillColor=none;top=0;left=0;bottom=0;right=0;points=[[0,0.5],[1,0.5]];portConstraint=eastwest;labelBackgroundColor=#FFFFFF;fontColor=#000000;strokeWidth=2;" vertex="1" parent="7q_oNH2DxjgzWiPnT3Ee-0">
                    <mxGeometry y="120" width="220" height="20" as="geometry"/>
                </mxCell>
                <mxCell id="7q_oNH2DxjgzWiPnT3Ee-6" value="" style="shape=partialRectangle;html=1;whiteSpace=wrap;connectable=0;overflow=hidden;fillColor=none;top=0;left=0;bottom=0;right=0;pointerEvents=1;labelBackgroundColor=#FFFFFF;fontColor=#000000;strokeWidth=2;" vertex="1" parent="7q_oNH2DxjgzWiPnT3Ee-5">
                    <mxGeometry width="220" height="20" as="geometry">
                        <mxRectangle width="220" height="20" as="alternateBounds"/>
                    </mxGeometry>
                </mxCell>
                <mxCell id="7q_oNH2DxjgzWiPnT3Ee-8" value="" style="shape=table;startSize=0;container=1;collapsible=0;childLayout=tableLayout;strokeWidth=2;fillColor=#f5f5f5;fontColor=#000000;strokeColor=#666666;" vertex="1" parent="6BBa9-7Ipqi8T7qrks2X-1">
                    <mxGeometry x="510" y="680" width="200" height="157" as="geometry"/>
                </mxCell>
                <mxCell id="7q_oNH2DxjgzWiPnT3Ee-9" value="" style="shape=partialRectangle;collapsible=0;dropTarget=0;pointerEvents=0;fillColor=none;top=0;left=0;bottom=0;right=0;points=[[0,0.5],[1,0.5]];portConstraint=eastwest;strokeWidth=2;fontColor=#000000;" vertex="1" parent="7q_oNH2DxjgzWiPnT3Ee-8">
                    <mxGeometry width="200" height="50" as="geometry"/>
                </mxCell>
                <mxCell id="7q_oNH2DxjgzWiPnT3Ee-10" value="OrderTopping" style="shape=partialRectangle;html=1;whiteSpace=wrap;connectable=0;overflow=hidden;fillColor=none;top=0;left=0;bottom=0;right=0;pointerEvents=1;strokeWidth=2;fontColor=#000000;" vertex="1" parent="7q_oNH2DxjgzWiPnT3Ee-9">
                    <mxGeometry width="200" height="50" as="geometry">
                        <mxRectangle width="200" height="50" as="alternateBounds"/>
                    </mxGeometry>
                </mxCell>
                <mxCell id="7q_oNH2DxjgzWiPnT3Ee-11" value="" style="shape=partialRectangle;collapsible=0;dropTarget=0;pointerEvents=0;fillColor=none;top=0;left=0;bottom=0;right=0;points=[[0,0.5],[1,0.5]];portConstraint=eastwest;strokeWidth=2;fontColor=#000000;" vertex="1" parent="7q_oNH2DxjgzWiPnT3Ee-8">
                    <mxGeometry y="50" width="200" height="107" as="geometry"/>
                </mxCell>
                <mxCell id="7q_oNH2DxjgzWiPnT3Ee-12" value="- id Integer&lt;br&gt;- toppingID Integer&lt;br&gt;- orderItemId: Integer&lt;br&gt;- topping: Topping" style="shape=partialRectangle;html=1;whiteSpace=wrap;connectable=0;overflow=hidden;fillColor=#f5f5f5;top=0;left=0;bottom=0;right=0;pointerEvents=1;strokeWidth=2;fontColor=#000000;strokeColor=#666666;" vertex="1" parent="7q_oNH2DxjgzWiPnT3Ee-11">
                    <mxGeometry width="200" height="107" as="geometry">
                        <mxRectangle width="200" height="107" as="alternateBounds"/>
                    </mxGeometry>
                </mxCell>
                <mxCell id="7q_oNH2DxjgzWiPnT3Ee-16" value="" style="shape=table;startSize=0;container=1;collapsible=0;childLayout=tableLayout;labelBackgroundColor=#FFFFFF;fontColor=#000000;strokeWidth=2;align=left;fillColor=#f5f5f5;strokeColor=#666666;" vertex="1" parent="6BBa9-7Ipqi8T7qrks2X-1">
                    <mxGeometry x="780" y="40" width="280" height="160" as="geometry"/>
                </mxCell>
                <mxCell id="7q_oNH2DxjgzWiPnT3Ee-17" value="" style="shape=partialRectangle;collapsible=0;dropTarget=0;pointerEvents=0;fillColor=none;top=0;left=0;bottom=0;right=0;points=[[0,0.5],[1,0.5]];portConstraint=eastwest;labelBackgroundColor=#FFFFFF;fontColor=#000000;strokeWidth=2;" vertex="1" parent="7q_oNH2DxjgzWiPnT3Ee-16">
                    <mxGeometry width="280" height="49" as="geometry"/>
                </mxCell>
                <mxCell id="7q_oNH2DxjgzWiPnT3Ee-18" value="&lt;font&gt;OrderToppingRepository&lt;br&gt;&lt;/font&gt;" style="shape=partialRectangle;html=1;whiteSpace=wrap;connectable=0;overflow=hidden;fillColor=none;top=0;left=0;bottom=0;right=0;pointerEvents=1;labelBackgroundColor=#FFFFFF;fontColor=#000000;strokeWidth=2;" vertex="1" parent="7q_oNH2DxjgzWiPnT3Ee-17">
                    <mxGeometry width="280" height="49" as="geometry">
                        <mxRectangle width="280" height="49" as="alternateBounds"/>
                    </mxGeometry>
                </mxCell>
                <mxCell id="7q_oNH2DxjgzWiPnT3Ee-19" value="" style="shape=partialRectangle;collapsible=0;dropTarget=0;pointerEvents=0;fillColor=none;top=0;left=0;bottom=0;right=0;points=[[0,0.5],[1,0.5]];portConstraint=eastwest;labelBackgroundColor=#FFFFFF;fontColor=#000000;strokeWidth=2;" vertex="1" parent="7q_oNH2DxjgzWiPnT3Ee-16">
                    <mxGeometry y="49" width="280" height="45" as="geometry"/>
                </mxCell>
                <mxCell id="7q_oNH2DxjgzWiPnT3Ee-20" value="jdbcTemplate : NamedJdbcTemplate&amp;nbsp;" style="shape=partialRectangle;html=1;whiteSpace=wrap;connectable=0;overflow=hidden;fillColor=none;top=0;left=0;bottom=0;right=0;pointerEvents=1;labelBackgroundColor=#FFFFFF;fontColor=#000000;strokeWidth=2;" vertex="1" parent="7q_oNH2DxjgzWiPnT3Ee-19">
                    <mxGeometry width="280" height="45" as="geometry">
                        <mxRectangle width="280" height="45" as="alternateBounds"/>
                    </mxGeometry>
                </mxCell>
                <mxCell id="7q_oNH2DxjgzWiPnT3Ee-21" value="" style="shape=partialRectangle;collapsible=0;dropTarget=0;pointerEvents=0;fillColor=none;top=0;left=0;bottom=0;right=0;points=[[0,0.5],[1,0.5]];portConstraint=eastwest;labelBackgroundColor=#FFFFFF;fontColor=#000000;strokeWidth=2;" vertex="1" parent="7q_oNH2DxjgzWiPnT3Ee-16">
                    <mxGeometry y="94" width="280" height="66" as="geometry"/>
                </mxCell>
                <mxCell id="7q_oNH2DxjgzWiPnT3Ee-22" value="&lt;span style=&quot;color: rgb(0 , 0 , 0) ; font-family: &amp;#34;helvetica&amp;#34; ; font-size: 12px ; font-style: normal ; font-weight: 400 ; letter-spacing: normal ; text-indent: 0px ; text-transform: none ; word-spacing: 0px ; background-color: rgb(255 , 255 , 255) ; display: inline ; float: none&quot;&gt;+ insertOne( orderTopping Ordertopping) ; Integer&amp;nbsp;&lt;/span&gt;" style="shape=partialRectangle;html=1;whiteSpace=wrap;connectable=0;overflow=hidden;fillColor=none;top=0;left=0;bottom=0;right=0;pointerEvents=1;labelBackgroundColor=#FFFFFF;fontColor=#000000;strokeWidth=2;align=left;" vertex="1" parent="7q_oNH2DxjgzWiPnT3Ee-21">
                    <mxGeometry width="280" height="66" as="geometry">
                        <mxRectangle width="280" height="66" as="alternateBounds"/>
                    </mxGeometry>
                </mxCell>
                <mxCell id="PJVVyvPf7vu9DPtrSDhA-1" style="edgeStyle=none;curved=1;html=1;" edge="1" parent="6BBa9-7Ipqi8T7qrks2X-1" source="7q_oNH2DxjgzWiPnT3Ee-21">
                    <mxGeometry relative="1" as="geometry">
                        <mxPoint x="720" y="799.9999999999998" as="targetPoint"/>
                        <Array as="points">
                            <mxPoint x="1380" y="330"/>
                        </Array>
                    </mxGeometry>
                </mxCell>
                <mxCell id="bpq3mEDxIgyGmbh_NvNq-0" value="request" style="edgeStyle=none;curved=1;html=1;entryX=0;entryY=0.5;entryDx=0;entryDy=0;fontColor=#FFFFFF;" edge="1" parent="6BBa9-7Ipqi8T7qrks2X-1" source="wkd-MCDISzQO--NAXfG6-0" target="Yjv-sclPkgttAWHXHgat-5">
                    <mxGeometry relative="1" as="geometry"/>
                </mxCell>
                <mxCell id="wkd-MCDISzQO--NAXfG6-0" value="" style="shape=table;startSize=0;container=1;collapsible=0;childLayout=tableLayout;labelBackgroundColor=#FFFFFF;fontColor=#000000;strokeWidth=2;fillColor=#f5f5f5;strokeColor=#666666;" vertex="1" parent="6BBa9-7Ipqi8T7qrks2X-1">
                    <mxGeometry x="-170" y="392" width="130" height="88" as="geometry"/>
                </mxCell>
                <mxCell id="wkd-MCDISzQO--NAXfG6-1" value="" style="shape=partialRectangle;collapsible=0;dropTarget=0;pointerEvents=0;fillColor=none;top=0;left=0;bottom=0;right=0;points=[[0,0.5],[1,0.5]];portConstraint=eastwest;labelBackgroundColor=#FFFFFF;fontColor=#000000;strokeWidth=2;" vertex="1" parent="wkd-MCDISzQO--NAXfG6-0">
                    <mxGeometry width="130" height="60" as="geometry"/>
                </mxCell>
                <mxCell id="wkd-MCDISzQO--NAXfG6-2" value="+ detail.html" style="shape=partialRectangle;html=1;whiteSpace=wrap;connectable=0;overflow=hidden;fillColor=none;top=0;left=0;bottom=0;right=0;pointerEvents=1;labelBackgroundColor=#FFFFFF;fontColor=#000000;strokeWidth=2;" vertex="1" parent="wkd-MCDISzQO--NAXfG6-1">
                    <mxGeometry width="130" height="60" as="geometry">
                        <mxRectangle width="130" height="60" as="alternateBounds"/>
                    </mxGeometry>
                </mxCell>
                <mxCell id="wkd-MCDISzQO--NAXfG6-3" value="" style="shape=partialRectangle;collapsible=0;dropTarget=0;pointerEvents=0;fillColor=none;top=0;left=0;bottom=0;right=0;points=[[0,0.5],[1,0.5]];portConstraint=eastwest;labelBackgroundColor=#FFFFFF;fontColor=#000000;strokeWidth=2;" vertex="1" parent="wkd-MCDISzQO--NAXfG6-0">
                    <mxGeometry y="60" width="130" height="28" as="geometry"/>
                </mxCell>
                <mxCell id="wkd-MCDISzQO--NAXfG6-4" value="" style="shape=partialRectangle;html=1;whiteSpace=wrap;connectable=0;overflow=hidden;fillColor=none;top=0;left=0;bottom=0;right=0;pointerEvents=1;labelBackgroundColor=#FFFFFF;fontColor=#000000;strokeWidth=2;" vertex="1" parent="wkd-MCDISzQO--NAXfG6-3">
                    <mxGeometry width="130" height="28" as="geometry">
                        <mxRectangle width="130" height="28" as="alternateBounds"/>
                    </mxGeometry>
                </mxCell>
            </root>
        </mxGraphModel>
    </diagram>
    <diagram id="z98JF-WPOnKNY_d4Fueh" name="6-1.注文確認画面">
        <mxGraphModel dx="1647" dy="1744" grid="1" gridSize="10" guides="1" tooltips="1" connect="1" arrows="1" fold="1" page="1" pageScale="1" pageWidth="827" pageHeight="1169" background="#C4C4C4" math="0" shadow="0">
            <root>
                <mxCell id="qcAMC8WQLqsV1D57x9cx-0"/>
                <mxCell id="qcAMC8WQLqsV1D57x9cx-1" parent="qcAMC8WQLqsV1D57x9cx-0"/>
                <mxCell id="G1LfCt67uEz7WFnoTtmC-8" value="User" style="swimlane;fontStyle=1;align=center;verticalAlign=top;childLayout=stackLayout;horizontal=1;startSize=26;horizontalStack=0;resizeParent=1;resizeParentMax=0;resizeLast=0;collapsible=1;marginBottom=0;fontColor=#000000;strokeColor=#000000;fillColor=none;swimlaneFillColor=none;" parent="qcAMC8WQLqsV1D57x9cx-1" vertex="1">
                    <mxGeometry x="430" y="334" width="160" height="34" as="geometry"/>
                </mxCell>
                <mxCell id="G1LfCt67uEz7WFnoTtmC-10" value="" style="line;strokeWidth=1;fillColor=none;align=left;verticalAlign=middle;spacingTop=-1;spacingLeft=3;spacingRight=3;rotatable=0;labelPosition=right;points=[];portConstraint=eastwest;fontColor=#000000;" parent="G1LfCt67uEz7WFnoTtmC-8" vertex="1">
                    <mxGeometry y="26" width="160" height="8" as="geometry"/>
                </mxCell>
                <mxCell id="G1LfCt67uEz7WFnoTtmC-23" style="edgeStyle=none;html=1;exitX=0.5;exitY=1;exitDx=0;exitDy=0;entryX=0.5;entryY=0;entryDx=0;entryDy=0;fontColor=#000000;strokeColor=#000000;dashed=1;" parent="qcAMC8WQLqsV1D57x9cx-1" source="G1LfCt67uEz7WFnoTtmC-12" target="G1LfCt67uEz7WFnoTtmC-8" edge="1">
                    <mxGeometry relative="1" as="geometry"/>
                </mxCell>
                <mxCell id="ucmyR1L7XiMgM7GAJyrP-20" style="edgeStyle=none;html=1;exitX=1;exitY=0.617;exitDx=0;exitDy=0;entryX=0;entryY=0.5;entryDx=0;entryDy=0;dashed=1;fontColor=#000000;strokeColor=#000000;exitPerimeter=0;" parent="qcAMC8WQLqsV1D57x9cx-1" source="G1LfCt67uEz7WFnoTtmC-32" target="G1LfCt67uEz7WFnoTtmC-27" edge="1">
                    <mxGeometry relative="1" as="geometry"/>
                </mxCell>
                <mxCell id="G1LfCt67uEz7WFnoTtmC-12" value="userService" style="swimlane;fontStyle=1;align=center;verticalAlign=top;childLayout=stackLayout;horizontal=1;startSize=26;horizontalStack=0;resizeParent=1;resizeParentMax=0;resizeLast=0;collapsible=1;marginBottom=0;fontColor=#000000;strokeColor=#000000;fillColor=none;swimlaneFillColor=none;" parent="qcAMC8WQLqsV1D57x9cx-1" vertex="1">
                    <mxGeometry x="430" y="190" width="160" height="54" as="geometry"/>
                </mxCell>
                <mxCell id="G1LfCt67uEz7WFnoTtmC-13" value="" style="line;strokeWidth=1;fillColor=none;align=left;verticalAlign=middle;spacingTop=-1;spacingLeft=3;spacingRight=3;rotatable=0;labelPosition=right;points=[];portConstraint=eastwest;fontColor=#000000;" parent="G1LfCt67uEz7WFnoTtmC-12" vertex="1">
                    <mxGeometry y="26" width="160" height="8" as="geometry"/>
                </mxCell>
                <mxCell id="G1LfCt67uEz7WFnoTtmC-32" value="+search(userId: int) User" style="text;html=1;align=center;verticalAlign=middle;resizable=0;points=[];autosize=1;strokeColor=none;fillColor=none;fontColor=#000000;" parent="G1LfCt67uEz7WFnoTtmC-12" vertex="1">
                    <mxGeometry y="34" width="160" height="20" as="geometry"/>
                </mxCell>
                <mxCell id="ucmyR1L7XiMgM7GAJyrP-10" style="edgeStyle=none;html=1;exitX=0;exitY=0.5;exitDx=0;exitDy=0;entryX=1;entryY=0.5;entryDx=0;entryDy=0;fontColor=#000000;strokeColor=#000000;" parent="qcAMC8WQLqsV1D57x9cx-1" source="G1LfCt67uEz7WFnoTtmC-16" target="G1LfCt67uEz7WFnoTtmC-18" edge="1">
                    <mxGeometry relative="1" as="geometry"/>
                </mxCell>
                <mxCell id="ucmyR1L7XiMgM7GAJyrP-21" style="edgeStyle=none;html=1;exitX=1;exitY=0.5;exitDx=0;exitDy=0;entryX=0;entryY=0.05;entryDx=0;entryDy=0;entryPerimeter=0;dashed=1;fontColor=#000000;strokeColor=#000000;" parent="qcAMC8WQLqsV1D57x9cx-1" source="G1LfCt67uEz7WFnoTtmC-16" target="G1LfCt67uEz7WFnoTtmC-32" edge="1">
                    <mxGeometry relative="1" as="geometry"/>
                </mxCell>
                <mxCell id="ucmyR1L7XiMgM7GAJyrP-23" style="edgeStyle=none;html=1;entryX=0;entryY=0.5;entryDx=0;entryDy=0;dashed=1;fontColor=#000000;strokeColor=#000000;exitX=0.56;exitY=1.21;exitDx=0;exitDy=0;exitPerimeter=0;" parent="qcAMC8WQLqsV1D57x9cx-1" source="ucmyR1L7XiMgM7GAJyrP-0" target="G1LfCt67uEz7WFnoTtmC-8" edge="1">
                    <mxGeometry relative="1" as="geometry">
                        <mxPoint x="350" y="280" as="sourcePoint"/>
                    </mxGeometry>
                </mxCell>
                <mxCell id="YzfR5NdQ5ep8jEeJlSpV-1" style="edgeStyle=none;html=1;entryX=1;entryY=0.5;entryDx=0;entryDy=0;strokeColor=#000000;exitX=0.001;exitY=0.93;exitDx=0;exitDy=0;exitPerimeter=0;" edge="1" parent="qcAMC8WQLqsV1D57x9cx-1" source="ucmyR1L7XiMgM7GAJyrP-0" target="WbcMJ5uGlGPm3I4hB4oq-0">
                    <mxGeometry relative="1" as="geometry">
                        <mxPoint x="260" y="250" as="sourcePoint"/>
                    </mxGeometry>
                </mxCell>
                <mxCell id="hzebTaA6iq02FGdnHxyY-6" style="edgeStyle=none;html=1;exitX=0.75;exitY=0;exitDx=0;exitDy=0;entryX=0;entryY=0.5;entryDx=0;entryDy=0;strokeColor=#000000;dashed=1;" edge="1" parent="qcAMC8WQLqsV1D57x9cx-1" source="G1LfCt67uEz7WFnoTtmC-16" target="hzebTaA6iq02FGdnHxyY-0">
                    <mxGeometry relative="1" as="geometry"/>
                </mxCell>
                <mxCell id="hzebTaA6iq02FGdnHxyY-12" style="edgeStyle=none;html=1;exitX=0.5;exitY=0;exitDx=0;exitDy=0;entryX=0;entryY=0.5;entryDx=0;entryDy=0;dashed=1;strokeColor=#000000;" edge="1" parent="qcAMC8WQLqsV1D57x9cx-1" source="G1LfCt67uEz7WFnoTtmC-16" target="hzebTaA6iq02FGdnHxyY-8">
                    <mxGeometry relative="1" as="geometry"/>
                </mxCell>
                <mxCell id="G1LfCt67uEz7WFnoTtmC-16" value="confilmController" style="swimlane;fontStyle=1;align=center;verticalAlign=top;childLayout=stackLayout;horizontal=1;startSize=26;horizontalStack=0;resizeParent=1;resizeParentMax=0;resizeLast=0;collapsible=1;marginBottom=0;fontColor=#000000;strokeColor=#000000;fillColor=none;swimlaneFillColor=none;swimlaneLine=1;" parent="qcAMC8WQLqsV1D57x9cx-1" vertex="1">
                    <mxGeometry x="170" y="190" width="210" height="54" as="geometry"/>
                </mxCell>
                <mxCell id="G1LfCt67uEz7WFnoTtmC-17" value="" style="line;strokeWidth=1;fillColor=none;align=left;verticalAlign=middle;spacingTop=-1;spacingLeft=3;spacingRight=3;rotatable=0;labelPosition=right;points=[];portConstraint=eastwest;fontColor=#000000;" parent="G1LfCt67uEz7WFnoTtmC-16" vertex="1">
                    <mxGeometry y="26" width="210" height="8" as="geometry"/>
                </mxCell>
                <mxCell id="ucmyR1L7XiMgM7GAJyrP-0" value="+showConfirm(orderId: int) String" style="text;html=1;align=center;verticalAlign=middle;resizable=0;points=[];autosize=1;strokeColor=none;fillColor=none;fontColor=#000000;" parent="G1LfCt67uEz7WFnoTtmC-16" vertex="1">
                    <mxGeometry y="34" width="210" height="20" as="geometry"/>
                </mxCell>
                <mxCell id="ucmyR1L7XiMgM7GAJyrP-22" style="edgeStyle=none;html=1;exitX=0.5;exitY=1;exitDx=0;exitDy=0;entryX=1;entryY=0.5;entryDx=0;entryDy=0;dashed=1;fontColor=#000000;strokeColor=#000000;" parent="qcAMC8WQLqsV1D57x9cx-1" source="G1LfCt67uEz7WFnoTtmC-26" target="G1LfCt67uEz7WFnoTtmC-8" edge="1">
                    <mxGeometry relative="1" as="geometry"/>
                </mxCell>
                <mxCell id="G1LfCt67uEz7WFnoTtmC-26" value="userRepository" style="swimlane;fontStyle=1;align=center;verticalAlign=top;childLayout=stackLayout;horizontal=1;startSize=26;horizontalStack=0;resizeParent=1;resizeParentMax=0;resizeLast=0;collapsible=1;marginBottom=0;labelBackgroundColor=none;fontColor=#000000;strokeColor=#000000;fillColor=none;" parent="qcAMC8WQLqsV1D57x9cx-1" vertex="1">
                    <mxGeometry x="640" y="190" width="160" height="60" as="geometry"/>
                </mxCell>
                <mxCell id="G1LfCt67uEz7WFnoTtmC-28" value="" style="line;strokeWidth=1;fillColor=none;align=left;verticalAlign=middle;spacingTop=-1;spacingLeft=3;spacingRight=3;rotatable=0;labelPosition=right;points=[];portConstraint=eastwest;labelBackgroundColor=none;fontColor=#000000;" parent="G1LfCt67uEz7WFnoTtmC-26" vertex="1">
                    <mxGeometry y="26" width="160" height="8" as="geometry"/>
                </mxCell>
                <mxCell id="G1LfCt67uEz7WFnoTtmC-27" value="+load(id: int) User" style="text;strokeColor=none;fillColor=none;align=left;verticalAlign=top;spacingLeft=4;spacingRight=4;overflow=hidden;rotatable=0;points=[[0,0.5],[1,0.5]];portConstraint=eastwest;labelBackgroundColor=none;fontColor=#000000;" parent="G1LfCt67uEz7WFnoTtmC-26" vertex="1">
                    <mxGeometry y="34" width="160" height="26" as="geometry"/>
                </mxCell>
                <mxCell id="ucmyR1L7XiMgM7GAJyrP-3" style="edgeStyle=none;html=1;exitX=1;exitY=0.5;exitDx=0;exitDy=0;entryX=0;entryY=0;entryDx=0;entryDy=0;fontColor=#000000;strokeColor=#000000;" parent="qcAMC8WQLqsV1D57x9cx-1" source="ucmyR1L7XiMgM7GAJyrP-1" target="G1LfCt67uEz7WFnoTtmC-16" edge="1">
                    <mxGeometry relative="1" as="geometry"/>
                </mxCell>
                <mxCell id="ucmyR1L7XiMgM7GAJyrP-1" value="cart.html" style="swimlane;fontStyle=1;align=center;verticalAlign=top;childLayout=stackLayout;horizontal=1;startSize=26;horizontalStack=0;resizeParent=1;resizeParentMax=0;resizeLast=0;collapsible=1;marginBottom=0;fontColor=#000000;strokeColor=#000000;fillColor=none;swimlaneFillColor=none;" parent="qcAMC8WQLqsV1D57x9cx-1" vertex="1">
                    <mxGeometry x="-60" y="136" width="120" height="34" as="geometry"/>
                </mxCell>
                <mxCell id="ucmyR1L7XiMgM7GAJyrP-2" value="" style="line;strokeWidth=1;fillColor=none;align=left;verticalAlign=middle;spacingTop=-1;spacingLeft=3;spacingRight=3;rotatable=0;labelPosition=right;points=[];portConstraint=eastwest;fontColor=#000000;" parent="ucmyR1L7XiMgM7GAJyrP-1" vertex="1">
                    <mxGeometry y="26" width="120" height="8" as="geometry"/>
                </mxCell>
                <mxCell id="ucmyR1L7XiMgM7GAJyrP-4" value="request" style="text;html=1;align=center;verticalAlign=middle;resizable=0;points=[];autosize=1;strokeColor=none;fillColor=none;fontColor=#000000;" parent="qcAMC8WQLqsV1D57x9cx-1" vertex="1">
                    <mxGeometry x="90" y="150" width="60" height="20" as="geometry"/>
                </mxCell>
                <mxCell id="ucmyR1L7XiMgM7GAJyrP-11" value="forward&lt;br&gt;(Userがnull以外)" style="text;html=1;align=center;verticalAlign=middle;resizable=0;points=[];autosize=1;strokeColor=none;fillColor=none;fontColor=#000000;" parent="qcAMC8WQLqsV1D57x9cx-1" vertex="1">
                    <mxGeometry x="60" y="220" width="100" height="30" as="geometry"/>
                </mxCell>
                <mxCell id="WbcMJ5uGlGPm3I4hB4oq-0" value="login.html" style="swimlane;fontStyle=1;align=center;verticalAlign=top;childLayout=stackLayout;horizontal=1;startSize=26;horizontalStack=0;resizeParent=1;resizeParentMax=0;resizeLast=0;collapsible=1;marginBottom=0;fontColor=#000000;strokeColor=#000000;fillColor=none;swimlaneFillColor=none;" parent="qcAMC8WQLqsV1D57x9cx-1" vertex="1">
                    <mxGeometry x="-60" y="280" width="120" height="34" as="geometry"/>
                </mxCell>
                <mxCell id="WbcMJ5uGlGPm3I4hB4oq-1" value="" style="line;strokeWidth=1;fillColor=none;align=left;verticalAlign=middle;spacingTop=-1;spacingLeft=3;spacingRight=3;rotatable=0;labelPosition=right;points=[];portConstraint=eastwest;fontColor=#000000;" parent="WbcMJ5uGlGPm3I4hB4oq-0" vertex="1">
                    <mxGeometry y="26" width="120" height="8" as="geometry"/>
                </mxCell>
                <mxCell id="YzfR5NdQ5ep8jEeJlSpV-2" value="forward&lt;br&gt;(Userがnull)" style="text;html=1;align=center;verticalAlign=middle;resizable=0;points=[];autosize=1;strokeColor=none;fillColor=none;fontColor=#000000;" vertex="1" parent="qcAMC8WQLqsV1D57x9cx-1">
                    <mxGeometry x="100" y="270" width="80" height="30" as="geometry"/>
                </mxCell>
                <mxCell id="G1LfCt67uEz7WFnoTtmC-18" value="confirm.html" style="swimlane;fontStyle=1;align=center;verticalAlign=top;childLayout=stackLayout;horizontal=1;startSize=26;horizontalStack=0;resizeParent=1;resizeParentMax=0;resizeLast=0;collapsible=1;marginBottom=0;fontColor=#000000;strokeColor=#000000;fillColor=none;swimlaneFillColor=none;" parent="qcAMC8WQLqsV1D57x9cx-1" vertex="1">
                    <mxGeometry x="-60" y="203" width="120" height="34" as="geometry"/>
                </mxCell>
                <mxCell id="G1LfCt67uEz7WFnoTtmC-19" value="" style="line;strokeWidth=1;fillColor=none;align=left;verticalAlign=middle;spacingTop=-1;spacingLeft=3;spacingRight=3;rotatable=0;labelPosition=right;points=[];portConstraint=eastwest;fontColor=#000000;" parent="G1LfCt67uEz7WFnoTtmC-18" vertex="1">
                    <mxGeometry y="26" width="120" height="8" as="geometry"/>
                </mxCell>
                <mxCell id="hzebTaA6iq02FGdnHxyY-7" style="edgeStyle=none;html=1;exitX=1;exitY=0.5;exitDx=0;exitDy=0;entryX=0;entryY=0.5;entryDx=0;entryDy=0;dashed=1;strokeColor=#000000;" edge="1" parent="qcAMC8WQLqsV1D57x9cx-1" source="hzebTaA6iq02FGdnHxyY-0" target="hzebTaA6iq02FGdnHxyY-3">
                    <mxGeometry relative="1" as="geometry"/>
                </mxCell>
                <mxCell id="hzebTaA6iq02FGdnHxyY-11" style="edgeStyle=none;html=1;exitX=0.5;exitY=0;exitDx=0;exitDy=0;entryX=0.5;entryY=1;entryDx=0;entryDy=0;dashed=1;strokeColor=#000000;" edge="1" parent="qcAMC8WQLqsV1D57x9cx-1" source="hzebTaA6iq02FGdnHxyY-0" target="hzebTaA6iq02FGdnHxyY-8">
                    <mxGeometry relative="1" as="geometry"/>
                </mxCell>
                <mxCell id="hzebTaA6iq02FGdnHxyY-0" value="orderService" style="swimlane;fontStyle=1;align=center;verticalAlign=top;childLayout=stackLayout;horizontal=1;startSize=26;horizontalStack=0;resizeParent=1;resizeParentMax=0;resizeLast=0;collapsible=1;marginBottom=0;fontColor=#000000;strokeColor=#000000;fillColor=none;swimlaneFillColor=none;" vertex="1" parent="qcAMC8WQLqsV1D57x9cx-1">
                    <mxGeometry x="430" y="80" width="160" height="54" as="geometry"/>
                </mxCell>
                <mxCell id="hzebTaA6iq02FGdnHxyY-1" value="" style="line;strokeWidth=1;fillColor=none;align=left;verticalAlign=middle;spacingTop=-1;spacingLeft=3;spacingRight=3;rotatable=0;labelPosition=right;points=[];portConstraint=eastwest;fontColor=#000000;" vertex="1" parent="hzebTaA6iq02FGdnHxyY-0">
                    <mxGeometry y="26" width="160" height="8" as="geometry"/>
                </mxCell>
                <mxCell id="hzebTaA6iq02FGdnHxyY-2" value="+search(orderId: int) Order" style="text;html=1;align=center;verticalAlign=middle;resizable=0;points=[];autosize=1;strokeColor=none;fillColor=none;fontColor=#000000;" vertex="1" parent="hzebTaA6iq02FGdnHxyY-0">
                    <mxGeometry y="34" width="160" height="20" as="geometry"/>
                </mxCell>
                <mxCell id="hzebTaA6iq02FGdnHxyY-10" style="edgeStyle=none;html=1;exitX=0.5;exitY=0;exitDx=0;exitDy=0;entryX=1;entryY=0.5;entryDx=0;entryDy=0;dashed=1;strokeColor=#000000;" edge="1" parent="qcAMC8WQLqsV1D57x9cx-1" source="hzebTaA6iq02FGdnHxyY-3" target="hzebTaA6iq02FGdnHxyY-8">
                    <mxGeometry relative="1" as="geometry"/>
                </mxCell>
                <mxCell id="hzebTaA6iq02FGdnHxyY-3" value="orderRepository" style="swimlane;fontStyle=1;align=center;verticalAlign=top;childLayout=stackLayout;horizontal=1;startSize=26;horizontalStack=0;resizeParent=1;resizeParentMax=0;resizeLast=0;collapsible=1;marginBottom=0;fontColor=#000000;strokeColor=#000000;fillColor=none;swimlaneFillColor=none;" vertex="1" parent="qcAMC8WQLqsV1D57x9cx-1">
                    <mxGeometry x="640" y="80" width="160" height="54" as="geometry"/>
                </mxCell>
                <mxCell id="hzebTaA6iq02FGdnHxyY-4" value="" style="line;strokeWidth=1;fillColor=none;align=left;verticalAlign=middle;spacingTop=-1;spacingLeft=3;spacingRight=3;rotatable=0;labelPosition=right;points=[];portConstraint=eastwest;fontColor=#000000;" vertex="1" parent="hzebTaA6iq02FGdnHxyY-3">
                    <mxGeometry y="26" width="160" height="8" as="geometry"/>
                </mxCell>
                <mxCell id="hzebTaA6iq02FGdnHxyY-5" value="+load(orderId: int) Order" style="text;html=1;align=center;verticalAlign=middle;resizable=0;points=[];autosize=1;strokeColor=none;fillColor=none;fontColor=#000000;" vertex="1" parent="hzebTaA6iq02FGdnHxyY-3">
                    <mxGeometry y="34" width="160" height="20" as="geometry"/>
                </mxCell>
                <mxCell id="hzebTaA6iq02FGdnHxyY-8" value="Order" style="swimlane;fontStyle=1;align=center;verticalAlign=top;childLayout=stackLayout;horizontal=1;startSize=26;horizontalStack=0;resizeParent=1;resizeParentMax=0;resizeLast=0;collapsible=1;marginBottom=0;fontColor=#000000;strokeColor=#000000;fillColor=none;swimlaneFillColor=none;" vertex="1" parent="qcAMC8WQLqsV1D57x9cx-1">
                    <mxGeometry x="430" y="-30" width="160" height="34" as="geometry"/>
                </mxCell>
                <mxCell id="hzebTaA6iq02FGdnHxyY-9" value="" style="line;strokeWidth=1;fillColor=none;align=left;verticalAlign=middle;spacingTop=-1;spacingLeft=3;spacingRight=3;rotatable=0;labelPosition=right;points=[];portConstraint=eastwest;fontColor=#000000;" vertex="1" parent="hzebTaA6iq02FGdnHxyY-8">
                    <mxGeometry y="26" width="160" height="8" as="geometry"/>
                </mxCell>
                <mxCell id="hzebTaA6iq02FGdnHxyY-13" value="&lt;font color=&quot;#000000&quot;&gt;UserIdを取得する&lt;/font&gt;" style="html=1;fillColor=none;strokeColor=#000000;" vertex="1" parent="qcAMC8WQLqsV1D57x9cx-1">
                    <mxGeometry x="250" y="60" width="110" height="30" as="geometry"/>
                </mxCell>
                <mxCell id="6ZqYVrl2yUEEM7pZQDef-0" value="&lt;font color=&quot;#000000&quot;&gt;ログインしているか&lt;br&gt;(=検索結果がnullか)を判定する&lt;/font&gt;" style="html=1;fillColor=none;strokeColor=#000000;" vertex="1" parent="qcAMC8WQLqsV1D57x9cx-1">
                    <mxGeometry x="220" y="304" width="170" height="30" as="geometry"/>
                </mxCell>
            </root>
        </mxGraphModel>
    </diagram>
    <diagram name="7-1.注文する" id="MhMcHrFpgnzR68hBOIsB">
        <mxGraphModel grid="1" gridSize="10" guides="1" tooltips="1" connect="1" arrows="1" page="1" fold="1" pageScale="1" pageWidth="827" pageHeight="1169" background="#CCCCCC" math="0" shadow="0">
            <root>
                <mxCell id="IaliANGdG-Y_monkIHL1-0"/>
                <mxCell id="IaliANGdG-Y_monkIHL1-1" parent="IaliANGdG-Y_monkIHL1-0"/>
                <mxCell id="IaliANGdG-Y_monkIHL1-2" value="Order" style="swimlane;fontStyle=1;align=center;verticalAlign=top;childLayout=stackLayout;horizontal=1;startSize=26;horizontalStack=0;resizeParent=1;resizeParentMax=0;resizeLast=0;collapsible=1;marginBottom=0;fontColor=#000000;strokeColor=#000000;fillColor=none;swimlaneFillColor=none;" parent="IaliANGdG-Y_monkIHL1-1" vertex="1">
                    <mxGeometry x="430" y="334" width="160" height="34" as="geometry"/>
                </mxCell>
                <mxCell id="IaliANGdG-Y_monkIHL1-3" value="" style="line;strokeWidth=1;fillColor=none;align=left;verticalAlign=middle;spacingTop=-1;spacingLeft=3;spacingRight=3;rotatable=0;labelPosition=right;points=[];portConstraint=eastwest;fontColor=#000000;" parent="IaliANGdG-Y_monkIHL1-2" vertex="1">
                    <mxGeometry y="26" width="160" height="8" as="geometry"/>
                </mxCell>
                <mxCell id="IaliANGdG-Y_monkIHL1-4" style="edgeStyle=none;html=1;exitX=0.5;exitY=1;exitDx=0;exitDy=0;entryX=0.5;entryY=0;entryDx=0;entryDy=0;fontColor=#000000;strokeColor=#000000;dashed=1;" parent="IaliANGdG-Y_monkIHL1-1" source="IaliANGdG-Y_monkIHL1-6" target="IaliANGdG-Y_monkIHL1-2" edge="1">
                    <mxGeometry relative="1" as="geometry"/>
                </mxCell>
                <mxCell id="IaliANGdG-Y_monkIHL1-5" style="edgeStyle=none;html=1;exitX=1;exitY=0.5;exitDx=0;exitDy=0;entryX=0;entryY=0.5;entryDx=0;entryDy=0;dashed=1;fontColor=#000000;strokeColor=#000000;" parent="IaliANGdG-Y_monkIHL1-1" source="IaliANGdG-Y_monkIHL1-6" edge="1">
                    <mxGeometry relative="1" as="geometry">
                        <mxPoint x="590" y="228.33999999999992" as="sourcePoint"/>
                        <mxPoint x="640" y="229" as="targetPoint"/>
                    </mxGeometry>
                </mxCell>
                <mxCell id="IaliANGdG-Y_monkIHL1-6" value="orderService" style="swimlane;fontStyle=1;align=center;verticalAlign=top;childLayout=stackLayout;horizontal=1;startSize=26;horizontalStack=0;resizeParent=1;resizeParentMax=0;resizeLast=0;collapsible=1;marginBottom=0;fontColor=#000000;strokeColor=#000000;fillColor=none;swimlaneFillColor=none;" parent="IaliANGdG-Y_monkIHL1-1" vertex="1">
                    <mxGeometry x="450" y="190" width="165" height="74" as="geometry"/>
                </mxCell>
                <mxCell id="IaliANGdG-Y_monkIHL1-8" value="" style="line;strokeWidth=1;fillColor=none;align=left;verticalAlign=middle;spacingTop=-1;spacingLeft=3;spacingRight=3;rotatable=0;labelPosition=right;points=[];portConstraint=eastwest;fontColor=#000000;" parent="IaliANGdG-Y_monkIHL1-6" vertex="1">
                    <mxGeometry y="26" width="165" height="8" as="geometry"/>
                </mxCell>
                <mxCell id="IaliANGdG-Y_monkIHL1-9" value="+search(orderId: int) Order" style="text;html=1;align=center;verticalAlign=middle;resizable=0;points=[];autosize=1;strokeColor=none;fillColor=none;fontColor=#000000;" parent="IaliANGdG-Y_monkIHL1-6" vertex="1">
                    <mxGeometry y="34" width="165" height="20" as="geometry"/>
                </mxCell>
                <mxCell id="nigjKNNI4VFuVC4tRIcz-2" value="+save(order: Order) void" style="text;html=1;align=center;verticalAlign=middle;resizable=0;points=[];autosize=1;strokeColor=none;fillColor=none;fontColor=#000000;" vertex="1" parent="IaliANGdG-Y_monkIHL1-6">
                    <mxGeometry y="54" width="165" height="20" as="geometry"/>
                </mxCell>
                <mxCell id="IaliANGdG-Y_monkIHL1-11" style="edgeStyle=none;html=1;exitX=-0.003;exitY=0.46;exitDx=0;exitDy=0;entryX=1;entryY=0;entryDx=0;entryDy=0;fontColor=#000000;strokeColor=#000000;exitPerimeter=0;" parent="IaliANGdG-Y_monkIHL1-1" source="IaliANGdG-Y_monkIHL1-17" target="IaliANGdG-Y_monkIHL1-21" edge="1">
                    <mxGeometry relative="1" as="geometry"/>
                </mxCell>
                <mxCell id="IaliANGdG-Y_monkIHL1-13" style="edgeStyle=none;html=1;exitX=1;exitY=0.5;exitDx=0;exitDy=0;entryX=0;entryY=0.5;entryDx=0;entryDy=0;dashed=1;fontColor=#000000;strokeColor=#000000;" parent="IaliANGdG-Y_monkIHL1-1" source="IaliANGdG-Y_monkIHL1-15" target="IaliANGdG-Y_monkIHL1-6" edge="1">
                    <mxGeometry relative="1" as="geometry">
                        <mxPoint x="430" y="217" as="targetPoint"/>
                    </mxGeometry>
                </mxCell>
                <mxCell id="IaliANGdG-Y_monkIHL1-14" style="edgeStyle=none;html=1;exitX=0.495;exitY=1.017;exitDx=0;exitDy=0;entryX=0;entryY=0.5;entryDx=0;entryDy=0;dashed=1;fontColor=#000000;strokeColor=#000000;exitPerimeter=0;" parent="IaliANGdG-Y_monkIHL1-1" source="IaliANGdG-Y_monkIHL1-17" target="IaliANGdG-Y_monkIHL1-2" edge="1">
                    <mxGeometry relative="1" as="geometry"/>
                </mxCell>
                <mxCell id="IaliANGdG-Y_monkIHL1-15" value="purchaseController" style="swimlane;fontStyle=1;align=center;verticalAlign=top;childLayout=stackLayout;horizontal=1;startSize=26;horizontalStack=0;resizeParent=1;resizeParentMax=0;resizeLast=0;collapsible=1;marginBottom=0;fontColor=#000000;strokeColor=#000000;fillColor=none;swimlaneFillColor=none;" parent="IaliANGdG-Y_monkIHL1-1" vertex="1">
                    <mxGeometry x="130" y="196" width="280" height="54" as="geometry"/>
                </mxCell>
                <mxCell id="IaliANGdG-Y_monkIHL1-16" value="" style="line;strokeWidth=1;fillColor=none;align=left;verticalAlign=middle;spacingTop=-1;spacingLeft=3;spacingRight=3;rotatable=0;labelPosition=right;points=[];portConstraint=eastwest;fontColor=#000000;" parent="IaliANGdG-Y_monkIHL1-15" vertex="1">
                    <mxGeometry y="26" width="280" height="8" as="geometry"/>
                </mxCell>
                <mxCell id="IaliANGdG-Y_monkIHL1-17" value="+purchase(form: confirmForm, orderId: int)String" style="text;html=1;align=center;verticalAlign=middle;resizable=0;points=[];autosize=1;strokeColor=none;fillColor=none;fontColor=#000000;" parent="IaliANGdG-Y_monkIHL1-15" vertex="1">
                    <mxGeometry y="34" width="280" height="20" as="geometry"/>
                </mxCell>
                <mxCell id="IaliANGdG-Y_monkIHL1-18" style="edgeStyle=none;html=1;exitX=1;exitY=0.75;exitDx=0;exitDy=0;fontColor=#000000;strokeColor=#000000;entryX=0;entryY=0.25;entryDx=0;entryDy=0;" parent="IaliANGdG-Y_monkIHL1-1" source="IaliANGdG-Y_monkIHL1-19" target="IaliANGdG-Y_monkIHL1-15" edge="1">
                    <mxGeometry relative="1" as="geometry">
                        <mxPoint x="140" y="240" as="targetPoint"/>
                    </mxGeometry>
                </mxCell>
                <mxCell id="IaliANGdG-Y_monkIHL1-19" value="confirm.html" style="swimlane;fontStyle=1;align=center;verticalAlign=top;childLayout=stackLayout;horizontal=1;startSize=26;horizontalStack=0;resizeParent=1;resizeParentMax=0;resizeLast=0;collapsible=1;marginBottom=0;fontColor=#000000;strokeColor=#000000;fillColor=none;swimlaneFillColor=none;" parent="IaliANGdG-Y_monkIHL1-1" vertex="1">
                    <mxGeometry x="-50" y="170" width="120" height="34" as="geometry"/>
                </mxCell>
                <mxCell id="IaliANGdG-Y_monkIHL1-20" value="" style="line;strokeWidth=1;fillColor=none;align=left;verticalAlign=middle;spacingTop=-1;spacingLeft=3;spacingRight=3;rotatable=0;labelPosition=right;points=[];portConstraint=eastwest;fontColor=#000000;" parent="IaliANGdG-Y_monkIHL1-19" vertex="1">
                    <mxGeometry y="26" width="120" height="8" as="geometry"/>
                </mxCell>
                <mxCell id="IaliANGdG-Y_monkIHL1-21" value="top.html" style="swimlane;fontStyle=1;align=center;verticalAlign=top;childLayout=stackLayout;horizontal=1;startSize=26;horizontalStack=0;resizeParent=1;resizeParentMax=0;resizeLast=0;collapsible=1;marginBottom=0;fontColor=#000000;strokeColor=#000000;fillColor=none;swimlaneFillColor=none;" parent="IaliANGdG-Y_monkIHL1-1" vertex="1">
                    <mxGeometry x="-50" y="264" width="120" height="34" as="geometry"/>
                </mxCell>
                <mxCell id="IaliANGdG-Y_monkIHL1-22" value="" style="line;strokeWidth=1;fillColor=none;align=left;verticalAlign=middle;spacingTop=-1;spacingLeft=3;spacingRight=3;rotatable=0;labelPosition=right;points=[];portConstraint=eastwest;fontColor=#000000;" parent="IaliANGdG-Y_monkIHL1-21" vertex="1">
                    <mxGeometry y="26" width="120" height="8" as="geometry"/>
                </mxCell>
                <mxCell id="IaliANGdG-Y_monkIHL1-24" style="edgeStyle=none;html=1;exitX=0.5;exitY=1;exitDx=0;exitDy=0;entryX=1;entryY=0.5;entryDx=0;entryDy=0;dashed=1;fontColor=#000000;strokeColor=#000000;" parent="IaliANGdG-Y_monkIHL1-1" source="IaliANGdG-Y_monkIHL1-25" target="IaliANGdG-Y_monkIHL1-2" edge="1">
                    <mxGeometry relative="1" as="geometry"/>
                </mxCell>
                <mxCell id="IaliANGdG-Y_monkIHL1-25" value="orderRepository" style="swimlane;fontStyle=1;align=center;verticalAlign=top;childLayout=stackLayout;horizontal=1;startSize=26;horizontalStack=0;resizeParent=1;resizeParentMax=0;resizeLast=0;collapsible=1;marginBottom=0;labelBackgroundColor=none;fontColor=#000000;strokeColor=#000000;fillColor=none;" parent="IaliANGdG-Y_monkIHL1-1" vertex="1">
                    <mxGeometry x="640" y="190" width="160" height="74" as="geometry"/>
                </mxCell>
                <mxCell id="IaliANGdG-Y_monkIHL1-28" value="" style="line;strokeWidth=1;fillColor=none;align=left;verticalAlign=middle;spacingTop=-1;spacingLeft=3;spacingRight=3;rotatable=0;labelPosition=right;points=[];portConstraint=eastwest;labelBackgroundColor=none;fontColor=#000000;" parent="IaliANGdG-Y_monkIHL1-25" vertex="1">
                    <mxGeometry y="26" width="160" height="8" as="geometry"/>
                </mxCell>
                <mxCell id="IaliANGdG-Y_monkIHL1-27" value="+load(orderId: int) Order" style="text;html=1;align=left;verticalAlign=middle;resizable=0;points=[];autosize=1;strokeColor=none;fillColor=none;fontColor=#000000;" parent="IaliANGdG-Y_monkIHL1-25" vertex="1">
                    <mxGeometry y="34" width="160" height="20" as="geometry"/>
                </mxCell>
                <mxCell id="nigjKNNI4VFuVC4tRIcz-3" value="+insert(order: Order) void" style="text;html=1;align=left;verticalAlign=middle;resizable=0;points=[];autosize=1;strokeColor=none;fillColor=none;fontColor=#000000;" vertex="1" parent="IaliANGdG-Y_monkIHL1-25">
                    <mxGeometry y="54" width="160" height="20" as="geometry"/>
                </mxCell>
                <mxCell id="IaliANGdG-Y_monkIHL1-37" value="request" style="text;html=1;align=center;verticalAlign=middle;resizable=0;points=[];autosize=1;strokeColor=none;fillColor=none;fontColor=#000000;" parent="IaliANGdG-Y_monkIHL1-1" vertex="1">
                    <mxGeometry x="90" y="177" width="60" height="20" as="geometry"/>
                </mxCell>
                <mxCell id="IaliANGdG-Y_monkIHL1-38" value="redirect" style="text;html=1;align=center;verticalAlign=middle;resizable=0;points=[];autosize=1;strokeColor=none;fillColor=none;fontColor=#000000;" parent="IaliANGdG-Y_monkIHL1-1" vertex="1">
                    <mxGeometry x="100" y="250" width="60" height="20" as="geometry"/>
                </mxCell>
                <mxCell id="IqpBrzZ4zVIwd_7JrKDw-0" style="edgeStyle=none;html=1;fontColor=#000000;strokeColor=#000000;dashed=1;exitX=0.5;exitY=0;exitDx=0;exitDy=0;entryX=0.5;entryY=1;entryDx=0;entryDy=0;" parent="IaliANGdG-Y_monkIHL1-1" source="IaliANGdG-Y_monkIHL1-15" target="5k3Me7lBVtjUPYvtwUU2-0" edge="1">
                    <mxGeometry relative="1" as="geometry">
                        <mxPoint x="300" y="180" as="sourcePoint"/>
                        <mxPoint x="250" y="140" as="targetPoint"/>
                    </mxGeometry>
                </mxCell>
                <mxCell id="5k3Me7lBVtjUPYvtwUU2-0" value="confirmForm" style="swimlane;fontStyle=1;align=center;verticalAlign=top;childLayout=stackLayout;horizontal=1;startSize=26;horizontalStack=0;resizeParent=1;resizeParentMax=0;resizeLast=0;collapsible=1;marginBottom=0;fontColor=#000000;strokeColor=#000000;fillColor=none;swimlaneFillColor=none;" parent="IaliANGdG-Y_monkIHL1-1" vertex="1">
                    <mxGeometry x="195" y="-40" width="150" height="174" as="geometry"/>
                </mxCell>
                <mxCell id="5k3Me7lBVtjUPYvtwUU2-5" value="- destinationName: String" style="text;html=1;align=center;verticalAlign=middle;resizable=0;points=[];autosize=1;strokeColor=none;fillColor=none;fontColor=#000000;" parent="5k3Me7lBVtjUPYvtwUU2-0" vertex="1">
                    <mxGeometry y="26" width="150" height="20" as="geometry"/>
                </mxCell>
                <mxCell id="q_rTo0tj1PV0FQ-W2CNR-1" value="- destinationEmail: String" style="text;html=1;align=center;verticalAlign=middle;resizable=0;points=[];autosize=1;strokeColor=none;fillColor=none;fontColor=#000000;" parent="5k3Me7lBVtjUPYvtwUU2-0" vertex="1">
                    <mxGeometry y="46" width="150" height="20" as="geometry"/>
                </mxCell>
                <mxCell id="q_rTo0tj1PV0FQ-W2CNR-2" value="- destinationZipcode: String" style="text;html=1;align=center;verticalAlign=middle;resizable=0;points=[];autosize=1;strokeColor=none;fillColor=none;fontColor=#000000;" parent="5k3Me7lBVtjUPYvtwUU2-0" vertex="1">
                    <mxGeometry y="66" width="150" height="20" as="geometry"/>
                </mxCell>
                <mxCell id="q_rTo0tj1PV0FQ-W2CNR-3" value="- destinationAddress: String" style="text;html=1;align=center;verticalAlign=middle;resizable=0;points=[];autosize=1;strokeColor=none;fillColor=none;fontColor=#000000;" parent="5k3Me7lBVtjUPYvtwUU2-0" vertex="1">
                    <mxGeometry y="86" width="150" height="20" as="geometry"/>
                </mxCell>
                <mxCell id="q_rTo0tj1PV0FQ-W2CNR-4" value="- destinationTel: String" style="text;html=1;align=center;verticalAlign=middle;resizable=0;points=[];autosize=1;strokeColor=none;fillColor=none;fontColor=#000000;" parent="5k3Me7lBVtjUPYvtwUU2-0" vertex="1">
                    <mxGeometry y="106" width="150" height="20" as="geometry"/>
                </mxCell>
                <mxCell id="q_rTo0tj1PV0FQ-W2CNR-5" value="- deliveryTime: TimeStamp" style="text;html=1;align=center;verticalAlign=middle;resizable=0;points=[];autosize=1;strokeColor=none;fillColor=none;fontColor=#000000;" parent="5k3Me7lBVtjUPYvtwUU2-0" vertex="1">
                    <mxGeometry y="126" width="150" height="20" as="geometry"/>
                </mxCell>
                <mxCell id="q_rTo0tj1PV0FQ-W2CNR-6" value="- paymentMethod: Integer" style="text;html=1;align=center;verticalAlign=middle;resizable=0;points=[];autosize=1;strokeColor=none;fillColor=none;fontColor=#000000;" parent="5k3Me7lBVtjUPYvtwUU2-0" vertex="1">
                    <mxGeometry y="146" width="150" height="20" as="geometry"/>
                </mxCell>
                <mxCell id="5k3Me7lBVtjUPYvtwUU2-4" value="" style="line;strokeWidth=1;fillColor=none;align=left;verticalAlign=middle;spacingTop=-1;spacingLeft=3;spacingRight=3;rotatable=0;labelPosition=right;points=[];portConstraint=eastwest;fontColor=#000000;" parent="5k3Me7lBVtjUPYvtwUU2-0" vertex="1">
                    <mxGeometry y="166" width="150" height="8" as="geometry"/>
                </mxCell>
                <mxCell id="q_rTo0tj1PV0FQ-W2CNR-7" value="&lt;font color=&quot;#000000&quot;&gt;・宛先情報&lt;br&gt;・配達時間&lt;br&gt;・支払方法&lt;/font&gt;" style="html=1;fillColor=none;strokeColor=#000000;" parent="IaliANGdG-Y_monkIHL1-1" vertex="1">
                    <mxGeometry x="380" y="12" width="80" height="70" as="geometry"/>
                </mxCell>
            </root>
        </mxGraphModel>
    </diagram>
</mxfile>